<svg width="24" height="24" viewBox="0 0 24 24" fill="none" xmlns="http://www.w3.org/2000/svg">
<g clip-path="url(#clip0_2018_3120)">
<path d="M22.849 7.68011L13.849 0.637106C13.321 0.223519 12.6697 -0.0012207 11.999 -0.0012207C11.3283 -0.0012207 10.677 0.223519 10.149 0.637106L1.14902 7.68011C0.789811 7.96013 0.499495 8.31868 0.300328 8.72828C0.101161 9.13788 -0.00156748 9.58765 1.80786e-05 10.0431V24.0001H24V10.0431C24.0014 9.58749 23.8983 9.13761 23.6988 8.728C23.4993 8.31839 23.2086 7.95992 22.849 7.68011ZM22 22.0001H2.00002V10.0431C1.99953 9.89114 2.03389 9.7411 2.10046 9.60449C2.16703 9.46789 2.26404 9.34836 2.38402 9.25511L11.384 2.21211C11.5599 2.07457 11.7767 1.99985 12 1.99985C12.2233 1.99985 12.4401 2.07457 12.616 2.21211L21.616 9.25511C21.736 9.34836 21.833 9.46789 21.8996 9.60449C21.9661 9.7411 22.0005 9.89114 22 10.0431V22.0001ZM12 8.00611C11.01 8.00592 10.0422 8.29963 9.21932 8.85003C8.39641 9.40042 7.75541 10.1827 7.37756 11.0978C6.99971 12.0129 6.90201 13.0195 7.09685 13.9901C7.29169 14.9608 7.7703 15.8517 8.47202 16.5501L12 20.0001L15.536 16.5421C16.2355 15.8428 16.7118 14.9518 16.9048 13.9818C17.0978 13.0118 16.9988 12.0063 16.6203 11.0926C16.2418 10.1788 15.6008 9.39786 14.7784 8.84846C13.9559 8.29907 12.9891 8.00592 12 8.00611ZM14.129 15.1201L12 17.2001L9.87802 15.1281C9.45886 14.7089 9.1733 14.1748 9.05741 13.5934C8.94152 13.012 9.00049 12.4093 9.22687 11.8614C9.45325 11.3135 9.83689 10.8449 10.3294 10.5149C10.8218 10.1848 11.401 10.0081 11.9939 10.007C12.5867 10.0059 13.1666 10.1804 13.6603 10.5086C14.154 10.8368 14.5394 11.3039 14.7679 11.851C14.9963 12.398 15.0575 13.0005 14.9438 13.5824C14.8301 14.1642 14.5466 14.6993 14.129 15.1201ZM13 13.0001C13 13.1979 12.9414 13.3912 12.8315 13.5557C12.7216 13.7201 12.5654 13.8483 12.3827 13.924C12.2 13.9997 11.9989 14.0195 11.8049 13.9809C11.6109 13.9423 11.4328 13.8471 11.2929 13.7072C11.1531 13.5674 11.0578 13.3892 11.0192 13.1952C10.9806 13.0012 11.0005 12.8001 11.0761 12.6174C11.1518 12.4347 11.28 12.2785 11.4444 12.1686C11.6089 12.0588 11.8022 12.0001 12 12.0001C12.2652 12.0001 12.5196 12.1055 12.7071 12.293C12.8947 12.4805 13 12.7349 13 13.0001Z" fill="#7672DA"/>
</g>
<defs>
<clipPath id="clip0_2018_3120">
<rect width="24" height="24" fill="white"/>
</clipPath>
</defs>
</svg>
