<svg width="24" height="24" viewBox="0 0 24 24" fill="none" xmlns="http://www.w3.org/2000/svg">
<path d="M22 13V6C22 4.89543 21.1046 4 20 4H4C2.89543 4 2 4.89543 2 6V20C2 21.1046 2.89543 22 4 22H12" stroke="#2C2C2C" stroke-width="2" stroke-linecap="round"/>
<path d="M22 13V6C22 4.89543 21.1046 4 20 4H4C2.89543 4 2 4.89543 2 6V20C2 21.1046 2.89543 22 4 22H12" stroke="#2C2C2C" stroke-width="2" stroke-linecap="round"/>
<path d="M9 2V6" stroke="#2C2C2C" stroke-width="2" stroke-linecap="round"/>
<path d="M15 2V6" stroke="#2C2C2C" stroke-width="2" stroke-linecap="round"/>
<path d="M17.9932 14V22" stroke="#2C2C2C" stroke-width="2" stroke-linecap="round"/>
<path d="M22 17.9936L14.0002 17.9936" stroke="#2C2C2C" stroke-width="2" stroke-linecap="round"/>
</svg>
