<svg width="16" height="16" viewBox="0 0 16 16" fill="none" xmlns="http://www.w3.org/2000/svg">
<g clip-path="url(#clip0_2845_11868)">
<path d="M9.33336 4.66678C9.33336 4.93049 9.25516 5.18828 9.10865 5.40754C8.96214 5.62681 8.75391 5.7977 8.51027 5.89862C8.26664 5.99954 7.99855 6.02594 7.73991 5.9745C7.48127 5.92305 7.24369 5.79606 7.05722 5.60959C6.87075 5.42312 6.74376 5.18554 6.69231 4.9269C6.64087 4.66826 6.66727 4.40017 6.76819 4.15654C6.8691 3.9129 7.04 3.70466 7.25927 3.55816C7.47853 3.41165 7.73632 3.33345 8.00003 3.33345C8.35365 3.33345 8.69279 3.47392 8.94284 3.72397C9.19288 3.97402 9.33336 4.31316 9.33336 4.66678ZM11.3 7.97145L8.00003 11.2001L4.70536 7.97611C4.05148 7.32428 3.60565 6.49313 3.42428 5.58784C3.24291 4.68255 3.33416 3.7438 3.68647 2.89038C4.03878 2.03697 4.63632 1.30723 5.40349 0.79352C6.17066 0.279807 7.07297 0.00520378 7.99625 0.00445709C8.91953 0.00371041 9.82228 0.276854 10.5903 0.789325C11.3583 1.3018 11.957 2.03056 12.3107 2.88341C12.6644 3.73626 12.7571 4.67486 12.5772 5.58044C12.3973 6.48602 11.9529 7.31789 11.3 7.97078V7.97145ZM10.6667 4.66678C10.6667 4.13936 10.5103 3.62379 10.2173 3.18526C9.92426 2.74673 9.50779 2.40494 9.02052 2.2031C8.53325 2.00127 7.99707 1.94846 7.47979 2.05135C6.9625 2.15425 6.48735 2.40822 6.11441 2.78116C5.74147 3.1541 5.48749 3.62926 5.3846 4.14654C5.28171 4.66382 5.33451 5.2 5.53635 5.68727C5.73818 6.17454 6.07998 6.59102 6.51851 6.88403C6.95704 7.17705 7.47261 7.33345 8.00003 7.33345C8.70727 7.33345 9.38555 7.0525 9.88564 6.5524C10.3857 6.0523 10.6667 5.37402 10.6667 4.66678ZM14.578 7.07545L13.6214 6.75545C13.3236 7.56658 12.8532 8.30334 12.2427 8.91478L8.00003 13.0668L3.77336 8.93345C2.97102 8.13408 2.41164 7.12372 2.16003 6.01945C1.88519 5.99415 1.60809 6.02663 1.34655 6.1148C1.08501 6.20298 0.844814 6.34489 0.641388 6.53143C0.437963 6.71796 0.275813 6.94499 0.165358 7.19793C0.0549028 7.45087 -0.00141383 7.72412 2.69631e-05 8.00011V14.5014L5.32203 16.0221L10.6687 14.6888L16.002 15.9874V8.98878C16.0018 8.55911 15.8631 8.14095 15.6066 7.79622C15.3502 7.45149 14.9895 7.19853 14.578 7.07478V7.07545Z" fill="#2C2C2C"/>
</g>
<defs>
<clipPath id="clip0_2845_11868">
<rect width="16" height="16" fill="white"/>
</clipPath>
</defs>
</svg>
