<svg width="21" height="21" viewBox="0 0 21 21" fill="none" xmlns="http://www.w3.org/2000/svg">
<mask id="mask0_2431_5571" style="mask-type:luminance" maskUnits="userSpaceOnUse" x="0" y="0" width="21" height="21">
<path d="M20.5 0.742798H0.5V20.7428H20.5V0.742798Z" fill="white"/>
</mask>
<g mask="url(#mask0_2431_5571)">
<path d="M20.1 11.2202C20.1 10.5111 20.0364 9.82928 19.9182 9.17468H10.5V13.0429H15.8818C15.65 14.2929 14.9455 15.352 13.8864 16.0611V18.5702H17.1182C19.0091 16.8293 20.1 14.2656 20.1 11.2202Z" fill="#4285F4"/>
<path d="M10.4999 20.9928C13.1999 20.9928 15.4635 20.0973 17.118 18.5701L13.8862 16.061C12.9908 16.661 11.8453 17.0155 10.4999 17.0155C7.89528 17.0155 5.69078 15.2564 4.90438 12.8928H1.56348V15.4837C3.20898 18.7519 6.59078 20.9928 10.4999 20.9928Z" fill="#34A853"/>
<path d="M4.9045 12.8928C4.7045 12.2928 4.5909 11.6519 4.5909 10.9928C4.5909 10.3337 4.7045 9.69279 4.9045 9.09279V6.50189H1.5636C0.8864 7.85189 0.5 9.37919 0.5 10.9928C0.5 12.6064 0.8864 14.1337 1.5636 15.4837L4.9045 12.8928Z" fill="#FBBC04"/>
<path d="M10.5 4.9701C11.9681 4.9701 13.2863 5.4746 14.3227 6.4655L17.1909 3.5973C15.4591 1.9837 13.1954 0.992798 10.5 0.992798C6.59086 0.992798 3.20906 3.2337 1.56356 6.5019L4.90446 9.0928C5.69086 6.7292 7.89536 4.9701 10.5 4.9701Z" fill="#E94235"/>
</g>
</svg>
