<svg width="24" height="24" viewBox="0 0 24 24" fill="none" xmlns="http://www.w3.org/2000/svg">
<g clip-path="url(#clip0_2016_4989)">
<path d="M19 14.0068C19.0001 12.8552 18.716 11.7213 18.173 10.7057C17.63 9.69016 16.8448 8.82424 15.887 8.18475C14.9293 7.54526 13.8285 7.15195 12.6823 7.03969C11.5362 6.92743 10.38 7.09969 9.31639 7.5412C8.25275 7.98271 7.31446 8.67983 6.58471 9.57075C5.85497 10.4617 5.35631 11.5189 5.13294 12.6487C4.90957 13.7784 4.9684 14.9459 5.3042 16.0475C5.64 17.149 6.24241 18.1508 7.05801 18.9638L12 23.7998L16.95 18.9588C17.6024 18.3101 18.1195 17.5384 18.4714 16.6883C18.8233 15.8383 19.003 14.9268 19 14.0068ZM12 20.9998L8.46401 17.5418C7.76508 16.8429 7.28899 15.9525 7.09587 14.9831C6.90276 14.0138 7.0013 13.0089 7.37904 12.0955C7.75677 11.1821 8.39676 10.4011 9.21814 9.85129C10.0395 9.30145 11.0054 9.0074 11.9939 9.00628C12.9823 9.00517 13.9489 9.29704 14.7715 9.84502C15.5941 10.393 16.2359 11.1725 16.6157 12.0851C16.9955 12.9976 17.0963 14.0022 16.9054 14.9721C16.7144 15.9419 16.2404 16.8333 15.543 17.5338L12 20.9998ZM12 10.9998C11.4067 10.9998 10.8266 11.1758 10.3333 11.5054C9.83995 11.8351 9.45544 12.3036 9.22837 12.8518C9.00131 13.4 8.9419 14.0032 9.05766 14.5851C9.17341 15.1671 9.45913 15.7016 9.87869 16.1212C10.2982 16.5407 10.8328 16.8264 11.4147 16.9422C11.9967 17.0579 12.5999 16.9985 13.1481 16.7715C13.6962 16.5444 14.1648 16.1599 14.4944 15.6665C14.8241 15.1732 15 14.5932 15 13.9998C15 13.2042 14.6839 12.4411 14.1213 11.8785C13.5587 11.3159 12.7957 10.9998 12 10.9998ZM24 10.0458V23.9998H14.653L16.7 21.9998H22V10.0428C22.0006 9.89101 21.9662 9.74108 21.8997 9.60462C21.8331 9.46817 21.736 9.34884 21.616 9.25584L12.616 2.21184C12.4401 2.0743 12.2233 1.99958 12 1.99958C11.7767 1.99958 11.5599 2.0743 11.384 2.21184L2.38401 9.25384C2.26389 9.3472 2.16681 9.46688 2.10023 9.60367C2.03366 9.74046 1.99937 9.89071 2.00001 10.0428V21.9998H7.30001L9.34501 23.9998H1.03375e-05V10.0428C-0.00118859 9.58725 0.101916 9.13742 0.301424 8.72783C0.500932 8.31824 0.791549 7.95976 1.15101 7.67984L10.151 0.637839C10.679 0.224251 11.3303 -0.000488281 12.001 -0.000488281C12.6717 -0.000488281 13.323 0.224251 13.851 0.637839L22.851 7.68184C23.2101 7.96155 23.5003 8.31976 23.6995 8.72902C23.8986 9.13827 24.0014 9.5877 24 10.0428V10.0458Z" fill="#2C2C2C"/>
</g>
<defs>
<clipPath id="clip0_2016_4989">
<rect width="24" height="24" fill="white"/>
</clipPath>
</defs>
</svg>
