<svg width="241" height="46" viewBox="0 0 241 46" fill="none" xmlns="http://www.w3.org/2000/svg">
<path d="M25.9714 25.7334L26.5935 4.09208C27.0925 2.53697 31.6277 2.53697 31.8808 4.09208L31.2588 32.764C31.2588 34.6952 29.9496 35.4981 28.0256 34.0731L6.07324 17.466L6.76038 35.6283C6.76038 37.0604 1.66108 37.4293 1.66108 35.8742L0.539951 10.1896C0.228929 8.0775 1.78403 7.57842 3.46211 8.88037L25.9786 25.7334H25.9714Z" fill="black"/>
<path d="M69.7097 29.4007C68.6536 31.7008 65.7893 33.5019 61.9341 33.5019C56.9578 33.5019 51.8006 31.9468 50.6144 24.4244C49.8043 18.8911 53.9705 12.7936 62.5561 11.8605C69.2757 11.1155 74.1218 14.4717 74.498 21.5601C74.8741 27.7154 75.12 27.5925 74.7439 34.9919C74.6209 39.2232 73.0658 41.8344 70.7657 43.5124C68.5234 45.3135 65.2903 45.8777 61.9341 45.6245C57.0807 45.4364 54.2237 41.8344 55.8366 37.292C56.7046 35.8599 61.124 36.113 60.502 37.9792C59.945 38.8471 60.502 40.7783 62.5561 40.7783C67.7784 40.7783 69.2757 38.8471 69.7097 35.2451V29.4007ZM55.8366 24.4244C56.7046 28.2217 60.502 28.9667 63.359 28.0915C67.4602 26.9126 69.9483 24.1712 69.2684 20.8151C68.4005 17.0828 65.2902 16.0268 61.9269 16.6488C56.3285 17.5819 55.2725 21.7481 55.8294 24.4244H55.8366Z" fill="black"/>
<path d="M104.009 35.99C103.886 37.9212 98.5337 37.5451 98.5337 35.99C99.3438 31.8237 99.5897 29.0245 99.0907 26.2904C98.6567 23.6793 97.6585 22.4931 94.2373 22.4931C88.704 22.4931 86.9608 31.7008 86.9608 35.4909C86.5847 36.923 80.9935 36.923 81.6734 35.6138C81.6734 27.5273 81.5505 30.0154 81.5505 20.0627C81.5505 11.9762 81.5505 7.06492 81.3045 4.33082C81.5505 2.65275 85.9699 2.52979 86.4689 3.9547C86.5919 8.743 86.5919 15.8965 86.4689 21.1839C87.402 18.8838 91.1343 16.6415 94.6134 16.7717C98.4035 16.8947 101.391 18.3268 103.199 20.815C105.441 24.4243 105.065 30.2686 104.009 35.99Z" fill="black"/>
<path d="M117.694 20.3231C114.461 20.3231 112.219 20.2001 109.796 20.0772C109.239 19.8891 108.986 18.5872 108.986 17.2129C109.109 16.0339 109.485 14.8477 110.165 14.8477C112.588 14.9706 115.199 14.9706 117.94 14.9706C117.817 11.6145 118.063 8.25112 118.063 4.46099C118.063 3.15181 122.728 3.15181 123.408 4.33803C123.408 7.32529 123.285 11.0576 123.22 14.9706C125.209 14.9706 127.64 14.9706 129.998 14.8477C131.054 14.8477 131.929 19.513 129.752 20.07C127.387 20.3159 125.34 20.1929 123.097 20.1929C123.097 22.2471 123.097 24.7353 123.22 26.6593C123.408 31.4476 125.831 32.5036 129.065 32.5036C131.553 32.5036 134.54 30.7026 135.719 27.5272C136.218 26.9052 137.52 27.1511 138.583 27.7153C139.582 28.3374 140.384 29.2704 140.138 30.3915C138.337 34.4348 134.417 37.791 128.197 37.668C121.296 37.545 117.81 34.3119 117.687 27.0354C117.81 24.7353 117.564 22.2471 117.687 20.3159L117.694 20.3231Z" fill="black"/>
<path d="M152.485 7.69423L140.355 7.94015C139.668 7.94015 139.299 6.69606 139.299 5.39411C139.299 4.09216 139.545 2.78297 140.109 2.40686C147.631 2.40686 148.875 2.40686 154.416 2.28389C159.515 2.16093 160.137 2.16093 170.148 2.40686C170.893 2.40686 171.146 3.71604 171.146 5.08309C171.023 6.39228 170.647 7.69423 170.025 7.81719L157.772 7.69423L157.273 35.3679C157.15 36.8001 152.861 36.5469 152.362 35.3679L152.485 7.69423Z" fill="#5E5BAE"/>
<path d="M179.551 18.8909C183.038 16.9018 184.962 16.4027 189.251 16.9018C191.862 17.2128 193.048 18.0808 194.596 18.7679C195.594 20.012 193.417 23.8021 192.108 23.5562C191.363 23.3103 189.497 22.0011 187.942 22.1241C184.332 21.7479 181.974 23.303 179.92 24.8582C179.92 28.3373 179.674 33.3787 179.544 35.4908C179.544 36.8 174.691 36.8 174.691 35.4908C174.814 30.0153 174.691 29.6465 174.691 26.7822C174.691 22.1168 174.568 18.7607 173.946 13.2852C173.7 11.8531 177.989 10.5511 179.11 11.9761C179.421 15.0863 179.797 17.0103 179.544 18.8764L179.551 18.8909Z" fill="#5E5BAE"/>
<path d="M230.487 13.2274C236.519 13.1045 240.627 17.7698 240.497 23.238C240.374 32.4457 229.112 34.3697 223.767 34.3697C223.767 37.979 223.89 41.1471 224.013 44.2573C223.767 45.0023 222.581 45.4363 221.402 45.5665C220.158 45.6895 218.849 45.4435 218.603 44.7564C218.849 40.5901 218.538 32.3155 218.538 27.2162C218.538 22.927 218.292 20.0627 218.415 15.5276C221.525 14.4064 225.192 13.3504 230.479 13.2274H230.487ZM223.644 29.7116C227 29.8346 235.709 29.0245 235.463 22.4351C235.217 16.9597 227.007 17.7698 223.398 19.4479C223.398 23.238 223.644 27.1005 223.644 29.7116Z" fill="#5E5BAE"/>
<path d="M44.2067 34.9339C44.1416 36.3661 39.1074 36.8001 39.1074 34.9339C38.9845 25.8564 39.1074 16.6487 38.9845 15.0936C38.9845 13.7844 44.2067 13.5385 44.3297 15.0936C44.2067 21.56 44.3297 18.5727 44.2067 34.9339Z" fill="black"/>
<path d="M42.34 0.613003L43.3815 3.81725H46.7521C47.6056 3.81725 47.9673 4.91668 47.2729 5.41576L44.5461 7.39762L45.5876 10.6019C45.8552 11.4192 44.9222 12.0919 44.2278 11.5928L41.5009 9.61094L38.7741 11.5928C38.0797 12.0991 37.1466 11.4192 37.4143 10.6019L38.4558 7.39762L35.7289 5.41576C35.0346 4.90945 35.389 3.81725 36.2497 3.81725H39.6203L40.6619 0.613003C40.9295 -0.204334 42.0796 -0.204334 42.3472 0.613003H42.34Z" fill="#FFD469"/>
<path d="M207.724 34.9341C207.659 36.3662 202.625 36.8002 202.625 34.9341C202.502 25.8566 202.625 16.6489 202.502 15.0938C202.502 13.7846 207.724 13.5386 207.847 15.0938C207.724 21.5601 207.847 18.5729 207.724 34.9341Z" fill="#5E5BAE"/>
<path d="M205.439 11.4699C202.516 12.837 196.831 9.42297 198.589 9.4736C209.337 9.75569 202.61 0.743286 202.61 0.743286C206.35 0.960278 212.549 8.17888 205.439 11.4772V11.4699Z" fill="#FFD469"/>
</svg>
