<svg width="130" height="24" viewBox="0 0 130 24" fill="none" xmlns="http://www.w3.org/2000/svg">
<g opacity="0.3">
<path d="M13.797 13.5196L14.1339 2.14975C14.4043 1.33273 16.8608 1.33273 16.9979 2.14975L16.661 17.2133C16.661 18.2279 15.9518 18.6497 14.9097 17.9011L3.01884 9.17609L3.39103 18.7181C3.39103 19.4705 0.628916 19.6643 0.628916 18.8473L0.0216399 5.35321C-0.14683 4.24359 0.695517 3.98139 1.60447 4.6654L13.8009 13.5196H13.797Z" fill="black"/>
<path d="M37.4888 15.4463C36.9168 16.6547 35.3653 17.6009 33.2771 17.6009C30.5815 17.6009 27.7881 16.7839 27.1455 12.8318C26.7067 9.92479 28.9634 6.72133 33.614 6.23112C37.2537 5.83971 39.8787 7.60294 40.0825 11.327C40.2862 14.5609 40.4194 14.4963 40.2157 18.3838C40.1491 20.6068 39.3067 21.9786 38.0608 22.8603C36.8463 23.8065 35.095 24.1029 33.2771 23.9699C30.6481 23.8711 29.1006 21.9786 29.9743 19.5922C30.4444 18.8398 32.8382 18.9728 32.5013 19.9532C32.1996 20.4092 32.5013 21.4238 33.614 21.4238C36.4427 21.4238 37.2537 20.4092 37.4888 18.5168V15.4463ZM29.9743 12.8318C30.4444 14.8269 32.5013 15.2183 34.0489 14.7585C36.2703 14.1391 37.6181 12.6988 37.2498 10.9356C36.7797 8.97477 35.095 8.41996 33.2731 8.74677C30.2407 9.23698 29.6687 11.4258 29.9703 12.8318H29.9743Z" fill="black"/>
<path d="M56.0659 18.9088C55.9993 19.9234 53.1 19.7258 53.1 18.9088C53.5388 16.72 53.672 15.2493 53.4017 13.8129C53.1666 12.4411 52.626 11.8179 50.7728 11.8179C47.7756 11.8179 46.8314 16.6554 46.8314 18.6466C46.6277 19.399 43.5991 19.399 43.9674 18.7112C43.9674 14.4627 43.9008 15.7699 43.9008 10.541C43.9008 6.29254 43.9008 3.71229 43.7676 2.27586C43.9008 1.39424 46.2946 1.32964 46.565 2.07826C46.6316 4.59391 46.6316 8.35218 46.565 11.13C47.0704 9.92162 49.092 8.74359 50.9765 8.81199C53.0295 8.8766 54.6476 9.62901 55.6271 10.9362C56.8416 12.8325 56.6379 15.9029 56.0659 18.9088Z" fill="black"/>
<path d="M63.4808 10.6778C61.7295 10.6778 60.515 10.6132 59.2025 10.5486C58.9008 10.4498 58.7637 9.76582 58.7637 9.04381C58.8303 8.4244 59.034 7.80118 59.4023 7.80118C60.7148 7.86578 62.1292 7.86578 63.614 7.86578C63.5474 6.10255 63.6807 4.33551 63.6807 2.34427C63.6807 1.65646 66.2077 1.65646 66.576 2.27967C66.576 3.8491 66.5094 5.80994 66.4741 7.86578C67.5515 7.86578 68.868 7.86578 70.1452 7.80118C70.7172 7.80118 71.1913 10.2522 70.012 10.5448C68.7308 10.674 67.6221 10.6094 66.4075 10.6094C66.4075 11.6887 66.4075 12.9959 66.4741 14.0067C66.576 16.5224 67.8885 17.0772 69.6398 17.0772C70.9875 17.0772 72.6056 16.131 73.2442 14.4627C73.5146 14.1359 74.2198 14.2651 74.7957 14.5615C75.3364 14.8883 75.7713 15.3785 75.6381 15.9675C74.6625 18.0918 72.539 19.855 69.1696 19.7904C65.4319 19.7258 63.5435 18.0272 63.4769 14.2043C63.5435 12.9959 63.4103 11.6887 63.4769 10.674L63.4808 10.6778Z" fill="black"/>
<path d="M82.3259 4.04236L75.7556 4.17156C75.3834 4.17156 75.1836 3.51795 75.1836 2.83394C75.1836 2.14992 75.3168 1.46211 75.6224 1.26451C79.697 1.26451 80.3709 1.26451 83.372 1.1999C86.1341 1.1353 86.4711 1.1353 91.8935 1.26451C92.297 1.26451 92.4341 1.95232 92.4341 2.67053C92.3675 3.35835 92.1638 4.04236 91.8269 4.10696L85.1899 4.04236L84.9196 18.5815C84.853 19.3339 82.5297 19.2009 82.2593 18.5815L82.3259 4.04236Z" fill="#5E5BAE"/>
<path d="M96.9852 9.92526C98.8737 8.88024 99.9158 8.61803 102.239 8.88024C103.654 9.04364 104.296 9.49965 105.134 9.86066C105.675 10.5143 104.496 12.5055 103.787 12.3763C103.383 12.2471 102.372 11.5593 101.53 11.6239C99.575 11.4263 98.2977 12.2433 97.1851 13.0603C97.1851 14.8882 97.0519 17.5368 96.9813 18.6464C96.9813 19.3343 94.3524 19.3343 94.3524 18.6464C94.419 15.7698 94.3524 15.576 94.3524 14.0711C94.3524 11.6201 94.2858 9.85686 93.9489 6.9802C93.8157 6.22779 96.139 5.54377 96.7463 6.29239C96.9147 7.92642 97.1185 8.93724 96.9813 9.91766L96.9852 9.92526Z" fill="#5E5BAE"/>
<path d="M124.575 6.95007C127.843 6.88547 130.068 9.33652 129.998 12.2094C129.931 17.0469 123.831 18.0577 120.935 18.0577C120.935 19.9539 121.002 21.6184 121.069 23.2524C120.935 23.6438 120.293 23.8718 119.654 23.9402C118.98 24.0048 118.271 23.8756 118.138 23.5146C118.271 21.3258 118.103 16.9785 118.103 14.2994C118.103 12.046 117.97 10.5411 118.036 8.15849C119.721 7.56948 121.707 7.01467 124.571 6.95007H124.575ZM120.869 15.6104C122.687 15.675 127.404 15.2494 127.271 11.7876C127.138 8.91091 122.691 9.33652 120.736 10.2181C120.736 12.2094 120.869 14.2386 120.869 15.6104Z" fill="#5E5BAE"/>
<path d="M23.6744 18.3538C23.6392 19.1062 20.9123 19.3342 20.9123 18.3538C20.8457 13.5847 20.9123 8.74723 20.8457 7.93022C20.8457 7.2424 23.6744 7.1132 23.741 7.93022C23.6744 11.3275 23.741 9.75805 23.6744 18.3538Z" fill="black"/>
<path d="M22.6629 0.322057L23.227 2.00549H25.0528C25.5151 2.00549 25.711 2.5831 25.3349 2.84531L23.8578 3.88653L24.422 5.56996C24.567 5.99937 24.0616 6.35278 23.6854 6.09057L22.2084 5.04935L20.7313 6.09057C20.3552 6.35658 19.8498 5.99937 19.9948 5.56996L20.5589 3.88653L19.0819 2.84531C18.7058 2.5793 18.8978 2.00549 19.364 2.00549H21.1897L21.7539 0.322057C21.8989 -0.107352 22.5218 -0.107352 22.6668 0.322057H22.6629Z" fill="#FFD469"/>
<path d="M112.247 18.354C112.211 19.1064 109.485 19.3344 109.485 18.354C109.418 13.5849 109.485 8.74742 109.418 7.9304C109.418 7.24258 112.247 7.11338 112.313 7.9304C112.247 11.3277 112.313 9.75824 112.247 18.354Z" fill="#5E5BAE"/>
<path d="M111.006 6.02583C109.424 6.74405 106.344 4.95041 107.296 4.97701C113.118 5.12522 109.475 0.39032 109.475 0.39032C111.5 0.504322 114.858 4.2968 111.006 6.02963V6.02583Z" fill="#FFD469"/>
</g>
</svg>
