<svg width="16" height="16" viewBox="0 0 16 16" fill="none" xmlns="http://www.w3.org/2000/svg">
<g clip-path="url(#clip0_2845_11872)">
<path d="M11.7421 8.56533L15.9188 12.742L13.8048 14.856C13.4364 15.2229 12.9987 15.513 12.5172 15.7094C12.0358 15.9058 11.5201 16.0045 11.0001 16C6.16813 16 0.000130068 9.832 0.000130068 5C-0.00409881 4.47999 0.0948312 3.9643 0.291196 3.48277C0.487562 3.00124 0.777464 2.56343 1.14413 2.19467L3.25813 0.0813333L7.4348 4.258L4.6848 7.008C5.50234 8.95086 7.04585 10.4979 8.9868 11.32L11.7421 8.56533ZM14.6668 6.66667H16.0001C15.9982 4.89915 15.2952 3.20459 14.0454 1.95477C12.7955 0.704943 11.101 0.00194106 9.33346 0V1.33333C10.7475 1.33492 12.1031 1.89733 13.1029 2.89718C14.1028 3.89703 14.6652 5.25267 14.6668 6.66667ZM12.0001 6.66667H13.3335C13.3324 5.60613 12.9106 4.58933 12.1607 3.83941C11.4108 3.08949 10.394 2.66773 9.33346 2.66667V4C10.0407 4 10.719 4.28095 11.2191 4.78105C11.7192 5.28115 12.0001 5.95942 12.0001 6.66667Z" fill="#2C2C2C"/>
</g>
<defs>
<clipPath id="clip0_2845_11872">
<rect width="16" height="16" fill="white"/>
</clipPath>
</defs>
</svg>
