<svg width="23" height="22" viewBox="0 0 23 22" fill="none" xmlns="http://www.w3.org/2000/svg">
<g clip-path="url(#clip0_2354_4134)">
<path d="M12.9464 21.2142H2.73207C2.3153 21.2142 1.91561 21.0487 1.62091 20.754C1.32621 20.4593 1.16064 20.0596 1.16064 19.6428V2.35707C1.16064 1.9403 1.32621 1.54061 1.62091 1.24591C1.91561 0.951205 2.3153 0.785645 2.73207 0.785645H14.5178" stroke="#2C2C2C" stroke-width="1.83333" stroke-linecap="round" stroke-linejoin="round"/>
<path d="M16.874 5.49993L19.2312 0.785645L21.5883 5.49993V18.8571C21.5883 19.4822 21.34 20.0818 20.8979 20.5238C20.4559 20.9659 19.8563 21.2142 19.2312 21.2142C18.606 21.2142 18.0065 20.9659 17.5644 20.5238C17.1224 20.0818 16.874 19.4822 16.874 18.8571V5.49993Z" stroke="#2C2C2C" stroke-width="1.83333" stroke-linecap="round" stroke-linejoin="round"/>
<path d="M16.874 14.9286H21.5883" stroke="#2C2C2C" stroke-width="1.83333" stroke-linecap="round" stroke-linejoin="round"/>
<path d="M5.87402 0.785645V21.2142" stroke="#2C2C2C" stroke-width="1.83333" stroke-linecap="round" stroke-linejoin="round"/>
<path d="M9.80371 6.28564H12.9466" stroke="#2C2C2C" stroke-width="1.83333" stroke-linecap="round" stroke-linejoin="round"/>
</g>
<defs>
<clipPath id="clip0_2354_4134">
<rect width="22" height="22" fill="white" transform="translate(0.375)"/>
</clipPath>
</defs>
</svg>
