<svg width="43" height="47" viewBox="0 0 43 47" fill="none" xmlns="http://www.w3.org/2000/svg">
<g style="mix-blend-mode:luminosity">
<path d="M14.1071 21.5414C13.9721 21.3926 13.9721 21.1357 13.8777 20.9598C13.7833 20.784 13.7158 20.6082 13.6618 20.4121C13.6079 20.216 13.5674 20.0334 13.5337 19.8306C13.4999 19.6277 13.5539 19.4384 13.5471 19.2355C13.5404 19.0327 13.4325 18.8433 13.4325 18.6405C13.4325 18.4376 13.3583 18.2348 13.3718 18.0319C13.3852 17.829 13.6281 17.6465 13.6483 17.4504C13.6686 17.2407 13.4797 17.0244 13.4999 16.835C13.5202 16.6457 13.5741 16.4699 13.6079 16.2873C13.6416 16.1047 13.6551 15.9154 13.6956 15.7328C13.736 15.5503 13.6956 15.3474 13.736 15.1648C13.7765 14.9822 13.844 14.7997 13.8979 14.6239C13.9519 14.4481 14.0531 14.279 14.1205 14.1032C14.188 13.9274 14.3567 13.7989 14.4309 13.6299C14.5051 13.4608 14.4511 13.2241 14.532 13.0618C14.613 12.8996 14.7884 12.7711 14.8761 12.6088C14.9638 12.4465 15.1932 12.3654 15.2876 12.2031C15.382 12.0408 15.3281 11.7974 15.4293 11.6418C15.5305 11.4863 15.5642 11.2834 15.6654 11.1279C15.7666 10.9724 15.8273 10.7831 15.9352 10.6343C16.0431 10.4855 16.1443 10.3232 16.2523 10.1745C16.3602 10.0257 16.5896 9.96486 16.7042 9.81609C16.8189 9.66733 17.0078 9.58618 17.1292 9.44418C17.2507 9.30218 17.2911 9.09256 17.4126 8.95732C17.534 8.82208 17.5677 8.59894 17.6959 8.45693C17.8241 8.31493 17.932 8.16617 18.0602 8.03093C18.1884 7.89569 18.5256 7.95655 18.6538 7.82131C18.782 7.68607 18.9372 7.57788 19.0653 7.44264C19.1935 7.3074 19.1058 6.96253 19.2407 6.8273C19.3756 6.69206 19.6792 6.73939 19.8141 6.60415C19.949 6.46891 19.9558 6.21872 20.0907 6.08348C20.2256 5.94824 20.3943 5.86033 20.5292 5.72509C20.6641 5.58985 20.7923 5.46814 20.9272 5.33966C21.0621 5.21118 21.2038 5.09623 21.3387 4.96775C21.4736 4.84603 21.5343 4.64317 21.676 4.5147C21.8177 4.38622 22.0943 4.42679 22.2292 4.30507C22.3641 4.18336 22.4788 4.02783 22.6137 3.90612C22.7486 3.7844 22.9712 3.75059 23.1061 3.62211C23.2411 3.49364 23.2343 3.2164 23.376 3.08792C23.5176 2.95944 23.6728 2.86477 23.8077 2.73629C23.9426 2.60782 24.0843 2.4861 24.2192 2.36439C24.3541 2.24267 24.5093 2.13448 24.651 2.006C24.7926 1.87752 25.0152 1.85724 25.1502 1.72876C25.2851 1.60028 25.2041 1.2419 25.3391 1.12018C25.4942 0.98494 25.6831 0.897035 25.8248 0.802367C26.0002 0.680651 26.189 0.592745 26.3307 0.525125C26.5331 0.430458 26.7557 0.633317 26.9109 0.640079C27.1132 0.640079 27.1874 0.646841 27.3156 0.782081C27.4303 0.897035 27.5382 0.998464 27.6124 1.19456C27.6664 1.35009 27.6732 1.5259 27.7069 1.72876C27.7339 1.89781 27.8688 2.06686 27.8823 2.26972C27.8958 2.44553 27.889 2.63486 27.8958 2.83096C27.8958 3.0203 27.8688 3.20963 27.862 3.39221C27.8553 3.57478 27.9295 3.77088 27.916 3.96021C27.9025 4.14955 27.9497 4.34565 27.9362 4.52822C27.9228 4.71079 27.889 4.90689 27.862 5.08946C27.8351 5.27204 27.7001 5.44785 27.6732 5.63042C27.6462 5.813 27.6192 6.00233 27.5787 6.18491C27.5382 6.36748 27.4303 6.53653 27.3898 6.7191C27.3493 6.90168 27.4775 7.13158 27.4303 7.31416C27.3831 7.49673 27.1874 7.63197 27.1267 7.80778C27.066 7.98359 27.066 8.18645 26.9986 8.36227C26.9311 8.53808 26.9378 8.74094 26.8636 8.91675C26.7894 9.09256 26.4859 9.16018 26.4049 9.32923C26.324 9.49828 26.5061 9.78904 26.4184 9.95809C26.3307 10.1271 26.0541 10.1948 25.9664 10.3571C25.8787 10.5193 25.7843 10.6816 25.6898 10.8439C25.5954 11.0062 25.5617 11.2023 25.4672 11.3646C25.3728 11.5269 25.2649 11.6756 25.1637 11.8312C25.0625 11.9867 25.1029 12.2436 25.0018 12.3992C24.9006 12.5547 24.6847 12.6358 24.5768 12.7914C24.4688 12.9469 24.2395 13.001 24.1248 13.1565C24.0101 13.312 24.0911 13.6028 23.9764 13.7516C23.8617 13.9003 23.7335 14.0356 23.6121 14.1776C23.4907 14.3196 23.1871 14.3128 23.0724 14.4616C22.9577 14.6103 22.9982 14.8876 22.8768 15.0296C22.7554 15.1716 22.5597 15.2527 22.4383 15.3947C22.3169 15.5367 22.1212 15.6111 21.9931 15.7464C21.8649 15.8816 21.9256 16.1859 21.7974 16.3279C21.6693 16.4699 21.4332 16.5037 21.305 16.6389C21.1768 16.7742 21.0689 16.9297 20.9407 17.0717C20.826 17.1799 20.7855 17.4098 20.6304 17.5653C20.509 17.687 20.4078 17.8561 20.2661 18.0049C20.1447 18.1333 19.8748 18.1469 19.7399 18.2889C19.6117 18.4241 19.5848 18.6608 19.4431 18.8028C19.3014 18.9448 19.0653 18.9651 18.9304 19.1003C18.7955 19.2355 18.6134 19.3167 18.4717 19.4519C18.33 19.5872 18.3907 19.9253 18.2491 20.0537C18.1074 20.1822 17.7903 20.1214 17.6487 20.2431C17.507 20.3648 17.3519 20.4865 17.2034 20.6015C17.055 20.7164 17.028 21.0139 16.8729 21.1221C16.711 21.2371 16.5356 21.3385 16.3804 21.4332C16.205 21.5346 15.9217 21.3791 15.7531 21.4467C15.5642 21.5278 15.4697 21.8659 15.2943 21.893C15.092 21.9268 14.9166 21.6698 14.7412 21.6225C14.5658 21.5752 14.4106 21.4805 14.2555 21.3453C14.2015 21.325 14.1206 21.5549 14.1138 21.5481L14.1071 21.5414Z" fill="#F4F3FA"/>
<path d="M14.9225 20.1754C14.7943 20.0334 14.6526 19.8712 14.5852 19.6886C14.5177 19.5128 14.484 19.3099 14.457 19.1071C14.43 18.9042 14.3828 18.7149 14.3828 18.5188C14.3828 18.3227 14.484 18.1266 14.4975 17.9372C14.511 17.7344 14.5582 17.545 14.5717 17.3625C14.5919 17.1664 14.5582 16.9635 14.5987 16.7742C14.6392 16.5848 14.6526 16.382 14.7066 16.1926C14.7606 16.0033 14.9967 15.8816 15.0641 15.699C15.1316 15.5164 15.1653 15.3271 15.253 15.1513C15.3407 14.9755 15.361 14.7726 15.4554 14.6036C15.5499 14.4345 15.7455 14.3263 15.8467 14.164C15.9479 14.0018 15.9209 13.7448 16.0356 13.5893C16.1502 13.4338 16.2514 13.2647 16.3729 13.1092C16.4943 12.9537 16.6629 12.8455 16.7911 12.6967C16.9193 12.5479 17.0002 12.3654 17.1351 12.2166C17.2701 12.0678 17.5467 12.0678 17.6816 11.9258C17.8165 11.7838 17.8367 11.5336 17.9716 11.3916C18.1066 11.2496 18.3022 11.1753 18.4439 11.04C18.5855 10.9048 18.6935 10.7357 18.8351 10.6005C18.9768 10.4652 19.0982 10.3165 19.2331 10.188C19.3681 10.0663 19.4827 9.91076 19.6177 9.78904C19.7526 9.66733 19.9954 9.6538 20.1303 9.52533C20.2653 9.39685 20.4137 9.28866 20.5553 9.16018C20.697 9.0317 20.7577 8.82884 20.8926 8.70036C21.0276 8.57189 21.176 8.45017 21.3109 8.32845C21.4458 8.20674 21.5537 8.05121 21.6954 7.9295C21.8573 7.7875 21.9922 7.64549 22.1204 7.56435C22.3228 7.44263 22.5319 7.56435 22.6668 7.57787C22.8355 7.60492 22.9232 7.6793 23.0109 7.8754C23.0716 8.0174 23.247 8.16617 23.274 8.36903C23.2942 8.53131 23.1728 8.72741 23.1728 8.92351C23.1728 9.11961 23.1998 9.30894 23.193 9.49828C23.1863 9.68761 23.2267 9.89047 23.2065 10.0798C23.1863 10.2691 23.0851 10.4517 23.0513 10.6411C23.0176 10.8304 22.9299 11.0062 22.8827 11.1955C22.8355 11.3849 22.9029 11.6013 22.8422 11.7838C22.7815 11.9664 22.768 12.1693 22.7006 12.3518C22.6331 12.5344 22.5184 12.6967 22.4442 12.8725C22.37 13.0483 22.2553 13.2106 22.1676 13.3797C22.0799 13.5487 21.9585 13.7042 21.8573 13.8665C21.7561 14.0288 21.6617 14.1979 21.5605 14.3601C21.4593 14.5224 21.3041 14.6509 21.1962 14.8064C21.0883 14.962 21.0073 15.1445 20.8926 15.2933C20.778 15.4421 20.643 15.5841 20.5216 15.7328C20.4002 15.8816 20.3934 16.125 20.272 16.2738C20.1506 16.4225 20.0022 16.5443 19.874 16.693C19.7458 16.8418 19.6177 16.977 19.4827 17.1258C19.3478 17.2746 19.1657 17.3557 19.0308 17.4977C18.9228 17.5991 18.7474 17.7006 18.5855 17.8696C18.4641 17.9981 18.3831 18.1874 18.2415 18.3362C18.1133 18.4714 17.9582 18.5864 17.8165 18.7284C17.6748 18.8704 17.5939 19.053 17.4522 19.1814C17.3105 19.3099 17.1082 19.3775 16.9598 19.4993C16.8046 19.6277 16.7371 19.8576 16.5887 19.9658C16.4201 20.0808 16.1907 20.0808 16.0288 20.1619C15.8332 20.2566 15.6645 20.3377 15.4959 20.3445C15.3003 20.358 15.1518 20.2566 15.0034 20.1214C14.9899 20.1078 14.9427 20.189 14.936 20.1822L14.9225 20.1754Z" fill="#FBE2F4"/>
<path d="M28.599 24.3207C28.464 24.1719 28.3359 23.9893 28.2414 23.8135C28.147 23.6377 28.3089 23.3604 28.2482 23.1643C28.1875 22.9683 27.9783 22.8263 27.9513 22.6302C27.9244 22.4341 27.749 22.2447 27.7355 22.0419C27.722 21.839 27.8367 21.6294 27.8434 21.4265C27.8502 21.2237 27.8906 21.0208 27.9041 20.8247C27.9176 20.6286 28.12 20.4325 28.1335 20.2432C28.1537 20.0336 28.1537 19.8375 28.174 19.6481C28.1942 19.4588 28.0458 19.2559 28.0728 19.0733C28.0998 18.8908 28.2077 18.7217 28.2482 18.5392C28.2886 18.3566 28.2077 18.147 28.2549 17.9644C28.3021 17.7818 28.5382 17.6601 28.599 17.4843C28.6597 17.3085 28.6799 17.1259 28.7474 16.9501C28.8148 16.7743 28.8755 16.6052 28.9497 16.4294C29.024 16.2536 29.1049 16.0981 29.1859 15.929C29.2668 15.76 29.2331 15.5368 29.3208 15.3745C29.4085 15.2123 29.4152 14.9959 29.5097 14.8336C29.6041 14.6713 29.7255 14.5225 29.82 14.367C29.9144 14.2115 30.0426 14.0627 30.1438 13.9072C30.245 13.7517 30.562 13.7517 30.67 13.5961C30.7779 13.4406 30.6362 13.1093 30.7509 12.9605C30.8656 12.8118 30.9735 12.6562 31.0882 12.5142C31.2029 12.3722 31.3648 12.2573 31.4862 12.1153C31.6076 11.9733 31.6953 11.8042 31.8168 11.6622C31.9382 11.5202 32.1136 11.4255 32.235 11.2835C32.3564 11.1415 32.6465 11.1551 32.7747 11.0198C32.9029 10.8846 32.9366 10.6614 33.0648 10.5262C33.1929 10.391 33.3751 10.3031 33.5033 10.1746C33.6314 10.0461 33.6854 9.83648 33.8203 9.70124C33.9552 9.566 34.0564 9.40371 34.1846 9.27523C34.3128 9.14676 34.5152 9.07914 34.6433 8.95066C34.7715 8.82218 34.9604 8.74104 35.0953 8.61256C35.2302 8.48408 35.3044 8.29475 35.4393 8.16627C35.5743 8.03779 35.662 7.86198 35.7901 7.7335C35.9251 7.61178 36.0532 7.47655 36.1881 7.34807C36.3231 7.21959 36.3973 7.03025 36.5322 6.90854C36.6671 6.78682 36.9167 6.78006 37.0516 6.65835C37.1865 6.53663 37.3417 6.42844 37.4766 6.29996C37.6115 6.17148 37.8274 6.13091 37.9623 6.0092C38.0972 5.88748 38.158 5.6711 38.2929 5.54938C38.4278 5.42766 38.529 5.25861 38.6639 5.1369C38.7988 5.01518 39.0147 4.96785 39.1496 4.84613C39.2845 4.72442 39.3655 4.52832 39.5004 4.4066C39.6353 4.28489 39.696 4.07527 39.831 3.95355C39.9861 3.81831 40.3099 3.9265 40.4516 3.83184C40.627 3.71012 40.7552 3.61545 40.9036 3.54783C41.1059 3.45316 41.2206 3.25031 41.3825 3.25031C41.5849 3.25031 41.794 3.31116 41.9222 3.4464C42.0369 3.56136 42.1246 3.75069 42.192 3.95355C42.246 4.10908 42.1988 4.3187 42.2325 4.52156C42.2595 4.69061 42.3944 4.86642 42.4079 5.06252C42.4214 5.23833 42.4012 5.43443 42.4012 5.62376C42.4012 5.8131 42.5024 6.00243 42.4956 6.19177C42.4889 6.3811 42.5091 6.5772 42.4956 6.75977C42.4821 6.94235 42.3674 7.13168 42.3472 7.31426C42.327 7.49683 42.4281 7.70645 42.4079 7.88903C42.3877 8.0716 42.1785 8.24065 42.1516 8.42322C42.1246 8.6058 41.9627 8.76808 41.9289 8.95066C41.8952 9.13323 41.9627 9.34285 41.9155 9.52543C41.8682 9.708 41.9492 9.92438 41.902 10.107C41.8547 10.2895 41.7805 10.4653 41.7198 10.6412C41.6591 10.817 41.3893 10.9252 41.3286 11.101C41.2678 11.2768 41.1801 11.4391 41.1127 11.6149C41.0452 11.7907 41.0452 11.9868 40.9643 12.1626C40.8833 12.3384 40.9845 12.5886 40.9036 12.7577C40.8226 12.9267 40.6 13.0214 40.5123 13.1904C40.4246 13.3595 40.4111 13.5623 40.3167 13.7246C40.2222 13.8869 40.2087 14.0965 40.1143 14.2588C40.0198 14.4211 39.7163 14.4482 39.6151 14.6104C39.5139 14.7727 39.4329 14.935 39.325 15.0905C39.2171 15.2461 39.1091 15.3948 39.0012 15.5504C38.8933 15.7059 38.8595 15.9087 38.7449 16.0575C38.6302 16.2063 38.3941 16.2604 38.2794 16.4091C38.1647 16.5579 38.1242 16.7607 38.0095 16.9028C37.8949 17.0448 37.6857 17.1124 37.5643 17.2611C37.4429 17.4099 37.4766 17.6736 37.3552 17.8156C37.2338 17.9576 37.1393 18.1267 37.0179 18.2687C36.8965 18.4107 36.7008 18.4851 36.5727 18.6271C36.4445 18.7691 36.3231 18.9043 36.1949 19.0463C36.0667 19.1883 36.0262 19.3979 35.8981 19.5332C35.7699 19.6684 35.5945 19.7698 35.4663 19.9051C35.3517 20.0133 35.1088 20.0471 34.9536 20.2026C34.8322 20.3243 34.6636 20.4325 34.5219 20.5813C34.4005 20.7097 34.3667 20.9464 34.2318 21.0952C34.1037 21.2304 33.908 21.3048 33.7731 21.4468C33.6382 21.5888 33.5977 21.8052 33.4628 21.9404C33.3279 22.0757 33.0918 22.1027 32.9568 22.238C32.8219 22.3732 32.7072 22.5287 32.5656 22.6572C32.4239 22.7857 32.3902 23.0359 32.2485 23.1643C32.1069 23.2928 31.9922 23.4619 31.8438 23.5836C31.6953 23.7053 31.4457 23.7053 31.2973 23.8135C31.1354 23.9285 31.0275 24.1245 30.8723 24.2192C30.6969 24.3206 30.4946 24.3612 30.3259 24.4288C30.137 24.51 29.9616 24.6249 29.7862 24.652C29.5839 24.6858 29.3545 24.7331 29.1724 24.6926C28.9902 24.652 28.916 24.2801 28.7609 24.1381C28.7136 24.1178 28.6259 24.3477 28.6192 24.3409L28.599 24.3207Z" fill="#F4F3FA"/>
<path d="M29.6769 22.495C29.5487 22.353 29.5892 22.1028 29.5217 21.9202C29.4542 21.7444 29.2249 21.6024 29.1979 21.4063C29.1709 21.2102 29.3058 21.0073 29.3058 20.8112C29.3058 20.6151 29.3126 20.4258 29.3328 20.2365C29.3463 20.0336 29.3058 19.8308 29.3193 19.6549C29.3396 19.4588 29.3126 19.256 29.3531 19.0667C29.3935 18.8773 29.5554 18.715 29.6094 18.5257C29.6634 18.3364 29.6229 18.12 29.6904 17.9374C29.7578 17.7548 29.9467 17.6263 30.0344 17.4505C30.1221 17.2747 30.2031 17.1057 30.2975 16.9366C30.3919 16.7676 30.4527 16.5782 30.5606 16.416C30.6685 16.2537 30.6955 16.0305 30.8034 15.875C30.9114 15.7195 31.134 15.6383 31.2554 15.4828C31.3768 15.3273 31.4848 15.1717 31.613 15.023C31.7411 14.8742 31.9098 14.766 32.038 14.624C32.1661 14.482 32.2606 14.2995 32.3955 14.1575C32.5304 14.0154 32.6046 13.8126 32.7395 13.6773C32.8744 13.5421 33.0229 13.4069 33.1578 13.2716C33.2927 13.1364 33.5018 13.062 33.6435 12.9268C33.7851 12.7915 33.9538 12.6901 34.0887 12.5616C34.2236 12.4399 34.2506 12.1897 34.3855 12.068C34.5205 11.9463 34.7363 11.9057 34.8712 11.7772C35.0062 11.6488 35.1883 11.5676 35.3232 11.4459C35.4581 11.3242 35.5931 11.1889 35.7347 11.0672C35.8764 10.9455 36.0046 10.8103 36.1395 10.6818C36.2744 10.5533 36.3823 10.3978 36.5173 10.2761C36.6792 10.1341 36.7601 9.92445 36.8883 9.85007C37.0907 9.72835 37.2998 9.87712 37.4347 9.8974C37.6034 9.92445 37.826 9.91769 37.9069 10.1138C37.9676 10.2558 37.8395 10.4789 37.8664 10.6818C37.8867 10.8441 37.8664 11.0199 37.8664 11.216C37.8664 11.4121 37.9879 11.6082 37.9811 11.7975C37.9744 11.9869 38.0014 12.1897 37.9811 12.379C37.9609 12.5684 37.8934 12.7645 37.8597 12.9471C37.826 13.1296 37.6776 13.3054 37.6371 13.488C37.5966 13.6706 37.7113 13.9073 37.6573 14.0966C37.6034 14.2859 37.4752 14.4482 37.4077 14.624C37.3403 14.7998 37.1851 14.9486 37.1109 15.1244C37.0367 15.3002 36.9085 15.449 36.8208 15.6248C36.7331 15.8006 36.8006 16.0508 36.6994 16.2199C36.5982 16.3889 36.3621 16.4633 36.2609 16.6256C36.1597 16.7879 36.1058 16.984 35.9978 17.1395C35.8899 17.295 35.755 17.437 35.6403 17.5925C35.5256 17.7481 35.4851 17.9577 35.3637 18.1065C35.2423 18.2552 35.0871 18.3769 34.9589 18.5257C34.8308 18.6745 34.7701 18.8706 34.6419 19.0126C34.5137 19.1546 34.2439 19.1681 34.1157 19.3168C33.9875 19.4656 33.9943 19.7293 33.8594 19.8713C33.7514 19.9728 33.576 20.0742 33.4209 20.2365C33.2994 20.365 33.0701 20.4123 32.9284 20.561C32.8002 20.6963 32.7665 20.9262 32.6248 21.0682C32.4832 21.2102 32.3078 21.2913 32.1661 21.4198C32.0245 21.5483 31.9098 21.7173 31.7681 21.8391C31.613 21.9675 31.4376 22.0487 31.2824 22.1569C31.1137 22.2718 30.9586 22.3868 30.7967 22.4612C30.6011 22.5558 30.4189 22.5355 30.2503 22.5423C30.0546 22.5558 29.9062 22.5288 29.7578 22.3935C29.7241 22.38 29.6701 22.495 29.6634 22.495H29.6769Z" fill="#FBE2F4"/>
<path d="M4.98715 23.2858C4.83874 23.4143 4.54192 23.367 4.40026 23.4954C4.25859 23.6239 4.15741 23.7997 4.02249 23.935C3.88757 24.0702 3.8336 24.2798 3.70543 24.4286C3.57725 24.5774 3.45582 24.7194 3.34114 24.8749C3.22646 25.0304 2.94313 25.0575 2.8352 25.2197C2.72726 25.382 2.67329 25.5781 2.5721 25.7404C2.47091 25.9027 2.336 26.0515 2.23481 26.2205C2.13362 26.3896 2.18759 26.633 2.09989 26.8088C2.01219 26.9846 1.98521 27.174 1.90426 27.3498C1.82331 27.5256 1.52648 27.6067 1.45227 27.7825C1.37807 27.9584 1.38482 28.1747 1.31736 28.3573C1.2499 28.5399 1.18244 28.7225 1.12173 28.905C1.06102 29.0876 1.12173 29.3107 1.0745 29.4933C1.02728 29.6759 0.919352 29.8517 0.878876 30.041C0.8384 30.2304 0.750699 30.4062 0.71697 30.5955C0.68324 30.7849 0.575305 30.9674 0.548321 31.1568C0.521337 31.3461 0.703482 31.5625 0.68999 31.7586C0.676498 31.9547 0.514597 32.1305 0.501105 32.3198C0.487613 32.5092 0.602293 32.7053 0.595547 32.9014C0.588802 33.0975 0.55507 33.2868 0.561816 33.4761C0.568562 33.6655 0.575303 33.8616 0.588795 34.0509C0.602287 34.2402 0.507846 34.4431 0.528084 34.6392C0.548322 34.8353 0.791177 34.9908 0.824907 35.1801C0.858637 35.3695 0.8384 35.5656 0.878876 35.7549C0.919352 35.9443 0.743957 36.1809 0.784433 36.3703C0.824909 36.5596 0.946337 36.7286 1.00705 36.918C1.06776 37.0938 1.14196 37.2764 1.20942 37.4454C1.27688 37.6145 1.40506 37.7768 1.47926 37.9458C1.55347 38.1149 1.60069 38.3042 1.68164 38.4732C1.7626 38.6423 1.78958 38.8451 1.87727 39.0074C1.96497 39.1697 2.24156 39.2306 2.336 39.3861C2.43045 39.5416 2.56536 39.6769 2.6733 39.8324C2.78123 39.9879 2.73401 40.2584 2.84869 40.4004C2.96337 40.5424 3.02409 40.7453 3.14551 40.8873C3.26694 41.0293 3.59749 40.9887 3.71891 41.1307C3.84034 41.2727 3.9955 41.3741 4.13042 41.5094C4.26533 41.6446 4.34628 41.8204 4.48795 41.9421C4.62961 42.0638 4.79153 42.1518 4.93994 42.2735C5.08835 42.3952 5.14231 42.6183 5.29072 42.7333C5.43913 42.8482 5.61452 42.9294 5.76293 43.0376C5.91134 43.1458 6.15421 43.1187 6.30936 43.2201C6.46452 43.3216 6.51174 43.5988 6.67364 43.6935C6.83554 43.7882 7.07165 43.7476 7.23355 43.8422C7.39546 43.9369 7.45617 44.2277 7.62482 44.3088C7.79347 44.39 7.94862 44.4982 8.12401 44.5793C8.29941 44.6605 8.52877 44.5996 8.69742 44.674C8.86607 44.7484 9.06845 44.7619 9.2371 44.8295C9.40575 44.8971 9.55415 45.0391 9.73629 45.1C9.91843 45.1608 10.0399 45.3705 10.2153 45.4313C10.3907 45.4922 10.6672 45.2285 10.8494 45.2826C11.0315 45.3367 11.2002 45.3907 11.3823 45.4381C11.5644 45.4854 11.7129 45.6342 11.895 45.6748C12.0771 45.7153 12.2188 45.9249 12.4009 45.9655C12.5831 46.0061 12.7922 45.9385 12.9743 45.9723C13.1565 46.0061 13.3319 46.0805 13.5208 46.1143C13.7097 46.1481 13.8851 46.2022 14.0739 46.236C14.2628 46.2698 14.445 46.3104 14.6271 46.3374C14.8092 46.3645 15.0049 46.3171 15.1938 46.3374C15.3827 46.3577 15.5648 46.4253 15.7469 46.4456C15.9291 46.4659 16.1315 46.2901 16.3203 46.3036C16.5092 46.3171 16.6914 46.2833 16.8803 46.2901C17.0691 46.2969 17.2513 46.2901 17.4402 46.2969C17.6291 46.3036 17.8112 46.4929 18.0001 46.4997C18.189 46.5065 18.3711 46.378 18.56 46.378C18.7489 46.378 18.9378 46.5065 19.1267 46.4997C19.3155 46.4929 19.4977 46.405 19.6866 46.3983C19.8754 46.3915 20.0711 46.4794 20.2532 46.4659C20.4354 46.4524 20.6108 46.2563 20.7929 46.236C20.975 46.2157 21.1572 46.1481 21.3461 46.1278C21.535 46.1075 21.7238 46.1616 21.9127 46.1278C22.1016 46.094 22.2635 45.9723 22.4524 45.9452C22.6413 45.9182 22.8504 46.0534 23.0326 46.0196C23.2147 45.9858 23.4036 45.9588 23.5857 45.9182C23.7679 45.8776 23.9163 45.6747 24.0917 45.6342C24.2671 45.5936 24.4762 45.6409 24.6583 45.5936C24.8405 45.5463 25.0159 45.4516 25.198 45.3975C25.3801 45.3434 25.5488 45.242 25.7309 45.1811C25.9131 45.1203 26.1694 45.2758 26.3516 45.2082C26.5337 45.1406 26.6349 44.8836 26.817 44.8092C26.9992 44.7348 27.2285 44.7957 27.4039 44.7213C27.5793 44.6469 27.8087 44.674 27.9841 44.5928C28.1595 44.5117 28.3011 44.3629 28.4698 44.2683C28.6384 44.1736 28.7329 43.9437 28.8948 43.8422C29.0567 43.7408 29.34 43.8287 29.5019 43.7205C29.6638 43.6123 29.7515 43.396 29.9067 43.2878C30.0618 43.1796 30.1428 42.9632 30.2979 42.8415C30.4531 42.7198 30.642 42.6589 30.7904 42.5372C30.9388 42.4155 31.067 42.2735 31.2086 42.1382C31.3503 42.003 31.5189 41.9083 31.6539 41.7731C31.7888 41.6378 31.8293 41.4147 31.9574 41.2727C32.0856 41.1307 32.4566 41.1916 32.5781 41.0428C32.6995 40.894 32.7265 40.6641 32.8411 40.5086C32.9558 40.3531 33.0233 40.1637 33.1312 40.0082C33.2392 39.8527 33.2931 39.6566 33.3943 39.4943C33.4955 39.332 33.6574 39.2035 33.7519 39.0345C33.8463 38.8654 33.934 38.6964 34.0149 38.5206C34.0959 38.3448 34.3185 38.2298 34.386 38.054C34.4534 37.8782 34.4197 37.6483 34.4804 37.4725C34.5411 37.2966 34.5411 37.087 34.5951 36.9045C34.6491 36.7219 34.757 36.5528 34.8042 36.3635C34.8514 36.1742 34.7907 35.9713 34.8312 35.782C34.8717 35.5926 34.9796 35.4168 35.0066 35.2275C35.0336 35.0381 35.0066 34.8421 35.0268 34.6527C35.0471 34.4634 34.9526 34.2673 34.9594 34.0779C34.9661 33.8886 35.128 33.706 35.128 33.5099C35.128 33.3138 35.2495 33.1245 35.2427 32.9284C35.236 32.7323 35.1955 32.543 35.182 32.3536C35.1685 32.1643 35.2022 31.9614 35.182 31.7721C35.1618 31.5828 34.9864 31.407 34.9526 31.2176C34.9189 31.0283 34.9257 30.8322 34.8852 30.6429C34.8447 30.4535 34.5884 30.3183 34.5411 30.1357C34.4939 29.9531 34.676 29.7029 34.6153 29.5204C34.5546 29.3378 34.5951 29.1214 34.5276 28.9388C34.4602 28.7563 34.1903 28.6548 34.1161 28.479C34.0419 28.3032 34.0892 28.0733 34.0082 27.8975C33.9273 27.7217 33.7046 27.6203 33.6169 27.4512C33.536 27.2822 33.5562 27.0522 33.4685 26.89C33.3808 26.7277 33.2999 26.5451 33.1987 26.3896C33.0975 26.234 32.9154 26.1191 32.8142 25.9636C32.713 25.808 32.6185 25.639 32.5039 25.4902C32.3892 25.3415 32.234 25.2198 32.1126 25.0777C31.9912 24.9357 31.7955 24.8546 31.6674 24.7194C31.5392 24.5841 31.5594 24.3069 31.4245 24.1716C31.2896 24.0364 31.1412 23.9214 30.9995 23.793C30.8578 23.6645 30.8039 23.4413 30.6622 23.3196C30.5205 23.1979 30.3856 23.0559 30.2372 22.9342C30.0888 22.8125 29.7785 22.9072 29.6233 22.799C29.4682 22.6908 29.3063 22.5961 29.1511 22.4879C28.996 22.3797 28.969 22.0822 28.8071 21.9808C28.6452 21.8793 28.4968 21.7576 28.3349 21.6562C28.173 21.5548 27.8694 21.717 27.7007 21.6291C27.5321 21.5412 27.4579 21.2843 27.2892 21.2031C27.1206 21.122 26.8777 21.1896 26.7091 21.1085C26.5404 21.0273 26.419 20.8447 26.2436 20.7704C26.0682 20.696 25.9198 20.5607 25.7444 20.4931C25.569 20.4255 25.3801 20.3849 25.2047 20.3241C25.0294 20.2632 24.8067 20.3241 24.6313 20.2632C24.4559 20.2024 24.2806 20.1347 24.0984 20.0806C23.9163 20.0265 23.7409 19.9589 23.5587 19.9116C23.3766 19.8643 23.2012 19.7899 23.0191 19.7493C22.8369 19.7087 22.6818 19.5329 22.4929 19.4991C22.304 19.4653 22.1016 19.5397 21.9127 19.4991C21.7238 19.4585 21.5282 19.5194 21.3393 19.4924C21.1504 19.4653 20.9683 19.4315 20.7794 19.4112C20.5905 19.3909 20.4084 19.3774 20.2195 19.3571C20.0306 19.3368 19.862 19.1475 19.6731 19.134C19.4842 19.1204 19.302 19.0055 19.1132 18.9987C18.9243 18.992 18.7286 19.0663 18.5398 19.0596C18.3509 19.0528 18.162 19.2895 17.9731 19.2895C17.7842 19.2895 17.6021 19.2827 17.4132 19.2895C17.2243 19.2963 17.0354 19.161 16.8465 19.1678C16.6576 19.1678 16.4755 19.1678 16.2866 19.1813C16.0977 19.1948 15.9156 19.2354 15.7334 19.2489C15.5513 19.2624 15.3422 19.0731 15.16 19.0934C14.9779 19.1137 14.7823 19.1272 14.6001 19.1475C14.418 19.1678 14.2291 19.2151 14.047 19.2354C13.8648 19.2557 13.7097 19.4991 13.5208 19.5262C13.3319 19.5532 13.1565 19.6073 12.9743 19.6411C12.7922 19.6749 12.6168 19.7425 12.4347 19.7764C12.2525 19.8102 12.0367 19.702 11.8545 19.7493C11.6724 19.7966 11.524 19.9522 11.3418 19.9995C11.1597 20.0468 10.9438 19.9657 10.7684 20.0198C10.593 20.0739 10.4649 20.297 10.2895 20.3579C10.1141 20.4187 9.90494 20.3782 9.72955 20.4458C9.55416 20.5134 9.41924 20.6757 9.24384 20.7433C9.06845 20.8109 8.87281 20.8109 8.70416 20.8853C8.53552 20.9597 8.39386 21.1017 8.22521 21.1761C8.05656 21.2505 7.77323 21.0949 7.60458 21.1761C7.43593 21.2572 7.24704 21.3181 7.08514 21.406C6.92324 21.4939 6.79506 21.6629 6.63991 21.7576C6.48475 21.8523 6.33634 21.974 6.18119 22.0822C6.02603 22.1904 5.9923 22.4609 5.84389 22.5758C5.69548 22.6908 5.53358 22.7719 5.39191 22.8936C5.25025 23.0153 5.06136 23.0492 4.92644 23.1776C4.91295 23.2588 4.98715 23.2993 4.97366 23.3129L4.98715 23.2858Z" fill="#F4F3FA"/>
<path d="M15.976 35.5521C16.0772 35.525 16.1784 35.498 16.2796 35.4844L16.1379 35.5047C16.3335 35.4777 16.5292 35.4844 16.7248 35.5047L16.5831 35.4844C16.8057 35.5182 17.0284 35.5723 17.2442 35.64C17.5073 35.7211 17.8244 35.5453 17.8851 35.2748C17.9525 34.9908 17.7974 34.7136 17.5208 34.6324C16.9339 34.4498 16.2998 34.3552 15.6927 34.5378C15.4296 34.6189 15.2407 34.9097 15.3284 35.1801C15.4161 35.4506 15.6927 35.6332 15.9692 35.5453L15.976 35.5521Z" fill="#2F2E57"/>
<ellipse cx="11.9544" cy="31.1667" rx="1.27271" ry="1.27778" fill="#2F2E57"/>
<ellipse cx="22.136" cy="32.4445" rx="1.27271" ry="1.27778" fill="#2F2E57"/>
<mask id="path-9-inside-1_2987_4559" fill="white">
<ellipse cx="16.727" cy="38.1945" rx="0.954533" ry="1.27778"/>
</mask>
<ellipse cx="16.727" cy="38.1945" rx="0.954533" ry="1.27778" fill="#F6B7E3"/>
<path d="M17.6815 38.1945H16.6815C16.6815 38.3528 16.6323 38.4573 16.6008 38.4995C16.5864 38.5188 16.5846 38.5137 16.6058 38.5016C16.63 38.488 16.6729 38.4722 16.727 38.4722V39.4722V40.4722C17.3776 40.4722 17.889 40.1169 18.2031 39.6965C18.5171 39.2762 18.6815 38.7418 18.6815 38.1945H17.6815ZM16.727 39.4722V38.4722C16.7811 38.4722 16.824 38.488 16.8482 38.5016C16.8694 38.5137 16.8676 38.5188 16.8532 38.4995C16.8217 38.4573 16.7725 38.3528 16.7725 38.1945H15.7725H14.7725C14.7725 38.7418 14.9369 39.2762 15.2509 39.6965C15.565 40.1169 16.0764 40.4722 16.727 40.4722V39.4722ZM15.7725 38.1945H16.7725C16.7725 38.0361 16.8217 37.9316 16.8532 37.8894C16.8676 37.8701 16.8694 37.8752 16.8482 37.8873C16.824 37.901 16.7811 37.9167 16.727 37.9167V36.9167V35.9167C16.0764 35.9167 15.565 36.272 15.2509 36.6925C14.9369 37.1128 14.7725 37.6471 14.7725 38.1945H15.7725ZM16.727 36.9167V37.9167C16.6729 37.9167 16.63 37.901 16.6058 37.8873C16.5846 37.8752 16.5864 37.8701 16.6008 37.8894C16.6323 37.9316 16.6815 38.0361 16.6815 38.1945H17.6815H18.6815C18.6815 37.6471 18.5171 37.1128 18.2031 36.6925C17.889 36.272 17.3776 35.9167 16.727 35.9167V36.9167Z" fill="#2F2E57" mask="url(#path-9-inside-1_2987_4559)"/>
<g filter="url(#filter0_f_2987_4559)">
<ellipse cx="23.0905" cy="36.2778" rx="2.22724" ry="1.27778" fill="#F6B7E3" fill-opacity="0.4"/>
</g>
<g filter="url(#filter1_f_2987_4559)">
<ellipse cx="10.364" cy="35.0001" rx="2.22724" ry="1.27778" fill="#F6B7E3" fill-opacity="0.4"/>
</g>
</g>
<defs>
<filter id="filter0_f_2987_4559" x="16.8633" y="31.0001" width="12.4541" height="10.5555" filterUnits="userSpaceOnUse" color-interpolation-filters="sRGB">
<feFlood flood-opacity="0" result="BackgroundImageFix"/>
<feBlend mode="normal" in="SourceGraphic" in2="BackgroundImageFix" result="shape"/>
<feGaussianBlur stdDeviation="2" result="effect1_foregroundBlur_2987_4559"/>
</filter>
<filter id="filter1_f_2987_4559" x="4.13672" y="29.7223" width="12.4541" height="10.5555" filterUnits="userSpaceOnUse" color-interpolation-filters="sRGB">
<feFlood flood-opacity="0" result="BackgroundImageFix"/>
<feBlend mode="normal" in="SourceGraphic" in2="BackgroundImageFix" result="shape"/>
<feGaussianBlur stdDeviation="2" result="effect1_foregroundBlur_2987_4559"/>
</filter>
</defs>
</svg>
