<svg width="24" height="24" viewBox="0 0 24 24" fill="none" xmlns="http://www.w3.org/2000/svg">
<path d="M4 20H8.18839L21.1341 7.03558C21.6886 6.47889 22 5.72467 22 4.93835C22 4.15203 21.6886 3.39782 21.1341 2.84112C20.5701 2.30127 19.82 2 19.0399 2C18.2597 2 17.5096 2.30127 16.9457 2.84112L4 15.8055V20ZM5.89777 16.5924L18.2874 4.18479C18.4901 3.9909 18.7596 3.8827 19.0399 3.8827C19.3202 3.8827 19.5897 3.9909 19.7923 4.18479C19.9915 4.38484 20.1034 4.65583 20.1034 4.93835C20.1034 5.22087 19.9915 5.49187 19.7923 5.69191L7.40271 18.0995H5.89777V16.5924Z" fill="#2C2C2C"/>
<path d="M17 22H12H2V4C2 2.89543 2.89543 2 4 2H14M22 10V17" stroke="#2C2C2C" stroke-width="2" stroke-linecap="round"/>
<path d="M17 22L22 17" stroke="#2C2C2C" stroke-width="2" stroke-linecap="round"/>
</svg>
