<svg width="25" height="24" viewBox="0 0 25 24" fill="none" xmlns="http://www.w3.org/2000/svg">
<path d="M3.19622 4.28577C2.74156 4.28577 2.30553 4.46638 1.98404 4.78787C1.66255 5.10936 1.48193 5.5454 1.48193 6.00005V21.4286C1.48193 21.8833 1.66255 22.3193 1.98404 22.6408C2.30553 22.9623 2.74156 23.1429 3.19622 23.1429H22.0534C22.508 23.1429 22.9441 22.9623 23.2655 22.6408C23.587 22.3193 23.7676 21.8833 23.7676 21.4286V6.00005C23.7676 5.5454 23.587 5.10936 23.2655 4.78787C22.9441 4.46638 22.508 4.28577 22.0534 4.28577H18.6248" stroke="#2C2C2C" stroke-width="2" stroke-linecap="round" stroke-linejoin="round"/>
<path d="M6.625 0.857178V7.71432" stroke="#2C2C2C" stroke-width="2" stroke-linecap="round" stroke-linejoin="round"/>
<path d="M18.625 0.857178V7.71432" stroke="#2C2C2C" stroke-width="2" stroke-linecap="round" stroke-linejoin="round"/>
<path d="M6.625 4.28577H15.1964" stroke="#2C2C2C" stroke-width="2" stroke-linecap="round" stroke-linejoin="round"/>
<path d="M7.48193 15.4287L10.9105 18.0001L16.9105 11.1429" stroke="#2C2C2C" stroke-width="2" stroke-linecap="round" stroke-linejoin="round"/>
</svg>
