<svg width="22" height="22" viewBox="0 0 22 22" fill="none" xmlns="http://www.w3.org/2000/svg">
<path d="M21.9996 20.7044L16.2594 14.9642C17.7505 13.1406 18.4836 10.8136 18.3071 8.46463C18.1306 6.11564 17.058 3.92435 15.3112 2.34401C13.5644 0.763667 11.2769 -0.0848162 8.92206 -0.025937C6.56719 0.0329421 4.32503 0.994679 2.65937 2.66034C0.993702 4.32601 0.0319656 6.56817 -0.0269136 8.92304C-0.0857928 11.2779 0.762691 13.5653 2.34303 15.3122C3.92338 17.059 6.11467 18.1316 8.46365 18.3081C10.8126 18.4845 13.1396 17.7514 14.9632 16.2604L20.7034 22.0005L21.9996 20.7044ZM9.16622 16.5005C7.71583 16.5005 6.298 16.0704 5.09204 15.2646C3.88608 14.4588 2.94615 13.3135 2.39111 11.9735C1.83606 10.6336 1.69084 9.15906 1.9738 7.73654C2.25676 6.31401 2.95519 5.00733 3.98077 3.98175C5.00636 2.95616 6.31303 2.25773 7.73556 1.97477C9.15809 1.69182 10.6326 1.83704 11.9726 2.39208C13.3126 2.94712 14.4579 3.88706 15.2637 5.09302C16.0695 6.29898 16.4996 7.7168 16.4996 9.1672C16.4974 11.1115 15.7241 12.9754 14.3493 14.3502C12.9745 15.725 11.1105 16.4984 9.16622 16.5005Z" fill="black"/>
</svg>
