<svg width="30" height="33" viewBox="0 0 30 33" fill="none" xmlns="http://www.w3.org/2000/svg">
<path d="M9.71926 15.1375C9.62289 15.034 9.62289 14.8552 9.55543 14.7329C9.48797 14.6106 9.43978 14.4883 9.40124 14.3519C9.36269 14.2155 9.33377 14.0885 9.30968 13.9473C9.28559 13.8062 9.32414 13.6745 9.31932 13.5334C9.3145 13.3923 9.23741 13.2606 9.23741 13.1194C9.23741 12.9783 9.18441 12.8372 9.19404 12.6961C9.20368 12.555 9.37714 12.428 9.3916 12.2915C9.40605 12.1457 9.27113 11.9952 9.28559 11.8635C9.30004 11.7318 9.33859 11.6095 9.36269 11.4825C9.38678 11.3555 9.39642 11.2237 9.42533 11.0967C9.45424 10.9697 9.42533 10.8286 9.45424 10.7016C9.48315 10.5746 9.53134 10.4476 9.56989 10.3253C9.60844 10.203 9.68071 10.0854 9.72889 9.96308C9.77708 9.84077 9.89754 9.7514 9.95055 9.6338C10.0036 9.5162 9.965 9.35156 10.0228 9.23866C10.0806 9.12577 10.2059 9.03639 10.2686 8.9235C10.3312 8.8106 10.495 8.75415 10.5625 8.64126C10.63 8.52836 10.5914 8.35902 10.6637 8.25083C10.736 8.14263 10.7601 8.00152 10.8323 7.89332C10.9046 7.78513 10.948 7.65342 11.0251 7.54993C11.1022 7.44645 11.1745 7.33355 11.2515 7.23006C11.3286 7.12657 11.4925 7.08424 11.5744 6.98075C11.6563 6.87726 11.7912 6.82082 11.878 6.72203C11.9647 6.62325 11.9936 6.47743 12.0803 6.38335C12.1671 6.28927 12.1912 6.13403 12.2827 6.03525C12.3743 5.93647 12.4514 5.83298 12.5429 5.7389C12.6345 5.64482 12.8754 5.68716 12.9669 5.59308C13.0585 5.499 13.1693 5.42373 13.2609 5.32965C13.3524 5.23557 13.2898 4.99567 13.3862 4.90159C13.4825 4.80751 13.6994 4.84044 13.7957 4.74636C13.8921 4.65228 13.8969 4.47823 13.9933 4.38415C14.0897 4.29007 14.2101 4.22892 14.3065 4.13484C14.4029 4.04076 14.4944 3.95609 14.5908 3.86671C14.6872 3.77734 14.7884 3.69737 14.8847 3.608C14.9811 3.52332 15.0245 3.3822 15.1257 3.29283C15.2268 3.20345 15.4244 3.23168 15.5208 3.14701C15.6171 3.06233 15.6991 2.95414 15.7954 2.86947C15.8918 2.7848 16.0508 2.76128 16.1472 2.6719C16.2436 2.58253 16.2387 2.38966 16.3399 2.30029C16.4411 2.21091 16.5519 2.14506 16.6483 2.05568C16.7447 1.96631 16.8459 1.88163 16.9422 1.79696C17.0386 1.71229 17.1494 1.63703 17.2506 1.54765C17.3518 1.45828 17.5108 1.44416 17.6072 1.35479C17.7036 1.26541 17.6457 1.0161 17.7421 0.931429C17.8529 0.837349 17.9879 0.776198 18.089 0.710342C18.2143 0.62567 18.3492 0.564518 18.4504 0.517479C18.595 0.451623 18.754 0.592742 18.8648 0.597446C19.0094 0.597446 19.0624 0.60215 19.1539 0.69623C19.2359 0.776198 19.313 0.846757 19.366 0.983173C19.4045 1.09136 19.4093 1.21367 19.4334 1.35479C19.4527 1.47239 19.5491 1.58999 19.5587 1.73111C19.5683 1.85341 19.5635 1.98512 19.5683 2.12154C19.5683 2.25325 19.5491 2.38496 19.5442 2.51197C19.5394 2.63897 19.5924 2.77539 19.5828 2.9071C19.5732 3.03881 19.6069 3.17523 19.5972 3.30224C19.5876 3.42924 19.5635 3.56566 19.5442 3.69267C19.525 3.81967 19.4286 3.94198 19.4093 4.06899C19.3901 4.19599 19.3708 4.3277 19.3419 4.45471C19.313 4.58172 19.2359 4.69932 19.2069 4.82633C19.178 4.95333 19.2696 5.11327 19.2359 5.24028C19.2021 5.36729 19.0624 5.46137 19.019 5.58367C18.9757 5.70597 18.9757 5.84709 18.9275 5.9694C18.8793 6.0917 18.8841 6.23282 18.8311 6.35512C18.7781 6.47743 18.5613 6.52447 18.5034 6.64206C18.4456 6.75966 18.5757 6.96194 18.5131 7.07954C18.4504 7.19713 18.2529 7.24417 18.1902 7.35707C18.1276 7.46997 18.0601 7.58286 17.9927 7.69576C17.9252 7.80865 17.9011 7.94507 17.8337 8.05796C17.7662 8.17086 17.6891 8.27435 17.6168 8.38254C17.5446 8.49073 17.5735 8.66948 17.5012 8.77767C17.4289 8.88586 17.2747 8.94231 17.1976 9.0505C17.1205 9.1587 16.9567 9.19633 16.8748 9.30452C16.7929 9.41271 16.8507 9.61498 16.7688 9.71847C16.6869 9.82196 16.5953 9.91604 16.5086 10.0148C16.4218 10.1136 16.205 10.1089 16.1231 10.2124C16.0412 10.3159 16.0701 10.5087 15.9834 10.6075C15.8966 10.7063 15.7569 10.7628 15.6701 10.8615C15.5834 10.9603 15.4437 11.0121 15.3521 11.1061C15.2606 11.2002 15.3039 11.4119 15.2124 11.5107C15.1208 11.6095 14.9522 11.633 14.8606 11.7271C14.7691 11.8211 14.692 11.9293 14.6004 12.0281C14.5185 12.1034 14.4896 12.2633 14.3788 12.3715C14.292 12.4562 14.2198 12.5738 14.1186 12.6773C14.0318 12.7667 13.8391 12.7761 13.7427 12.8748C13.6512 12.9689 13.6319 13.1336 13.5307 13.2323C13.4295 13.3311 13.2609 13.3452 13.1645 13.4393C13.0681 13.5334 12.938 13.5898 12.8369 13.6839C12.7357 13.778 12.779 14.0132 12.6778 14.1026C12.5766 14.192 12.3502 14.1496 12.249 14.2343C12.1478 14.319 12.037 14.4036 11.931 14.4836C11.825 14.5636 11.8057 14.7705 11.6949 14.8458C11.5792 14.9258 11.4539 14.9963 11.3431 15.0622C11.2178 15.1328 11.0154 15.0246 10.895 15.0716C10.7601 15.128 10.6926 15.3632 10.5673 15.3821C10.4228 15.4056 10.2975 15.2268 10.1722 15.1939C10.0469 15.161 9.93609 15.0951 9.82527 15.001C9.78672 14.9869 9.72889 15.1469 9.72408 15.1422L9.71926 15.1375Z" fill="#F4F3FA"/>
<path d="M10.302 14.1872C10.2104 14.0884 10.1092 13.9755 10.0611 13.8485C10.0129 13.7262 9.98877 13.5851 9.9695 13.4439C9.95023 13.3028 9.9165 13.1711 9.9165 13.0347C9.9165 12.8983 9.98878 12.7619 9.99842 12.6302C10.0081 12.489 10.0418 12.3573 10.0514 12.2303C10.0659 12.0939 10.0418 11.9528 10.0707 11.8211C10.0996 11.6894 10.1092 11.5482 10.1478 11.4165C10.1863 11.2848 10.355 11.2001 10.4032 11.0731C10.4514 10.9461 10.4755 10.8144 10.5381 10.6921C10.6007 10.5698 10.6152 10.4287 10.6826 10.3111C10.7501 10.1935 10.8898 10.1182 10.9621 10.0053C11.0344 9.89244 11.0151 9.71369 11.097 9.60549C11.179 9.4973 11.2512 9.3797 11.338 9.27151C11.4247 9.16332 11.5452 9.08806 11.6367 8.98457C11.7283 8.88108 11.7861 8.75407 11.8825 8.65059C11.9788 8.5471 12.1764 8.5471 12.2728 8.44831C12.3691 8.34953 12.3836 8.17548 12.48 8.0767C12.5763 7.97792 12.7161 7.92617 12.8173 7.83209C12.9184 7.73801 12.9955 7.62041 13.0967 7.52633C13.1979 7.43225 13.2847 7.32877 13.381 7.23939C13.4774 7.15472 13.5593 7.04653 13.6557 6.96186C13.7521 6.87718 13.9255 6.86778 14.0219 6.7784C14.1183 6.68903 14.2243 6.61376 14.3255 6.52439C14.4266 6.43501 14.47 6.29389 14.5664 6.20451C14.6628 6.11514 14.7688 6.03047 14.8651 5.9458C14.9615 5.86112 15.0386 5.75293 15.1398 5.66826C15.2554 5.56948 15.3518 5.47069 15.4434 5.41425C15.5879 5.32957 15.7373 5.41425 15.8337 5.42365C15.9541 5.44247 16.0168 5.49421 16.0794 5.63063C16.1228 5.72941 16.248 5.8329 16.2673 5.97402C16.2818 6.08692 16.195 6.22333 16.195 6.35975C16.195 6.49616 16.2143 6.62787 16.2095 6.75959C16.2047 6.8913 16.2336 7.03242 16.2191 7.16413C16.2047 7.29584 16.1324 7.42285 16.1083 7.55456C16.0842 7.68627 16.0216 7.80857 15.9878 7.94028C15.9541 8.072 16.0023 8.22252 15.9589 8.34953C15.9156 8.47654 15.9059 8.61766 15.8577 8.74467C15.8096 8.87167 15.7276 8.98457 15.6746 9.10687C15.6216 9.22918 15.5397 9.34207 15.4771 9.45967C15.4144 9.57727 15.3277 9.68546 15.2554 9.79836C15.1832 9.91125 15.1157 10.0289 15.0434 10.1417C14.9711 10.2546 14.8603 10.344 14.7832 10.4522C14.7061 10.5604 14.6483 10.6874 14.5664 10.7909C14.4845 10.8944 14.3881 10.9932 14.3014 11.0967C14.2146 11.2001 14.2098 11.3695 14.1231 11.473C14.0363 11.5765 13.9303 11.6611 13.8388 11.7646C13.7472 11.8681 13.6557 11.9622 13.5593 12.0657C13.4629 12.1692 13.3328 12.2256 13.2365 12.3244C13.1594 12.395 13.0341 12.4655 12.9184 12.5831C12.8317 12.6725 12.7739 12.8042 12.6727 12.9077C12.5811 13.0018 12.4703 13.0817 12.3691 13.1805C12.2679 13.2793 12.2101 13.4063 12.1089 13.4957C12.0077 13.5851 11.8632 13.6321 11.7572 13.7168C11.6464 13.8062 11.5982 13.9661 11.4922 14.0414C11.3717 14.1213 11.2079 14.1213 11.0922 14.1778C10.9525 14.2436 10.832 14.3001 10.7116 14.3048C10.5718 14.3142 10.4658 14.2436 10.3598 14.1495C10.3502 14.1401 10.3164 14.1966 10.3116 14.1919L10.302 14.1872Z" fill="#FBE2F4"/>
<path d="M20.0702 17.0707C19.9738 16.9672 19.8823 16.8402 19.8148 16.7179C19.7474 16.5956 19.863 16.4027 19.8196 16.2663C19.7763 16.1299 19.6269 16.0311 19.6076 15.8947C19.5883 15.7583 19.4631 15.6266 19.4534 15.4855C19.4438 15.3443 19.5257 15.1985 19.5305 15.0574C19.5353 14.9163 19.5643 14.7752 19.5739 14.6387C19.5835 14.5023 19.7281 14.3659 19.7377 14.2342C19.7522 14.0884 19.7522 13.952 19.7666 13.8202C19.7811 13.6885 19.6751 13.5474 19.6944 13.4204C19.7136 13.2934 19.7907 13.1758 19.8196 13.0488C19.8485 12.9218 19.7907 12.776 19.8245 12.649C19.8582 12.5219 20.0268 12.4373 20.0702 12.315C20.1136 12.1927 20.128 12.0657 20.1762 11.9434C20.2244 11.8211 20.2678 11.7035 20.3208 11.5811C20.3738 11.4588 20.4316 11.3507 20.4894 11.2331C20.5472 11.1155 20.5231 10.9602 20.5858 10.8473C20.6484 10.7344 20.6532 10.5839 20.7207 10.471C20.7882 10.3581 20.8749 10.2546 20.9423 10.1464C21.0098 10.0382 21.1014 9.93475 21.1736 9.82656C21.2459 9.71837 21.4724 9.71837 21.5495 9.61018C21.6266 9.50199 21.5254 9.27149 21.6073 9.16801C21.6892 9.06452 21.7663 8.95633 21.8482 8.85754C21.9301 8.75876 22.0458 8.67879 22.1325 8.58001C22.2193 8.48122 22.2819 8.36362 22.3686 8.26484C22.4554 8.16606 22.5806 8.1002 22.6674 8.00142C22.7541 7.90263 22.9613 7.91204 23.0529 7.81796C23.1444 7.72388 23.1685 7.56865 23.2601 7.47457C23.3516 7.38049 23.4817 7.31934 23.5733 7.22996C23.6648 7.14059 23.7034 6.99477 23.7997 6.90069C23.8961 6.80661 23.9684 6.69371 24.0599 6.60433C24.1515 6.51496 24.2961 6.46792 24.3876 6.37854C24.4792 6.28917 24.6141 6.23272 24.7104 6.14334C24.8068 6.05397 24.8598 5.92226 24.9562 5.83288C25.0526 5.74351 25.1152 5.6212 25.2068 5.53183C25.3031 5.44715 25.3947 5.35308 25.491 5.2637C25.5874 5.17432 25.6404 5.04261 25.7368 4.95794C25.8332 4.87327 26.0114 4.86857 26.1078 4.78389C26.2042 4.69922 26.315 4.62396 26.4114 4.53458C26.5078 4.44521 26.6619 4.41698 26.7583 4.33231C26.8547 4.24764 26.8981 4.09711 26.9944 4.01244C27.0908 3.92777 27.1631 3.81017 27.2594 3.7255C27.3558 3.64083 27.51 3.6079 27.6064 3.52323C27.7027 3.43855 27.7606 3.30214 27.8569 3.21747C27.9533 3.1328 27.9967 2.98697 28.093 2.9023C28.2039 2.80822 28.4352 2.88348 28.5364 2.81763C28.6616 2.73296 28.7532 2.6671 28.8592 2.62006C29.0038 2.55421 29.0857 2.41309 29.2013 2.41309C29.3459 2.41309 29.4952 2.45542 29.5868 2.5495C29.6687 2.62947 29.7313 2.76118 29.7795 2.9023C29.8181 3.01049 29.7844 3.15632 29.8084 3.29743C29.8277 3.41503 29.9241 3.53734 29.9337 3.67375C29.9434 3.79606 29.9289 3.93247 29.9289 4.06418C29.9289 4.1959 30.0012 4.32761 29.9964 4.45932C29.9916 4.59103 30.006 4.72745 29.9964 4.85445C29.9867 4.98146 29.9048 5.11317 29.8904 5.24018C29.8759 5.36719 29.9482 5.51301 29.9337 5.64002C29.9193 5.76703 29.7699 5.88463 29.7506 6.01163C29.7313 6.13864 29.6157 6.25154 29.5916 6.37854C29.5675 6.50555 29.6157 6.65137 29.582 6.77838C29.5482 6.90539 29.6061 7.05592 29.5723 7.18292C29.5386 7.30993 29.4856 7.43224 29.4422 7.55454C29.3989 7.67684 29.2061 7.75211 29.1628 7.87441C29.1194 7.99671 29.0568 8.10961 29.0086 8.23191C28.9604 8.35422 28.9604 8.49063 28.9026 8.61294C28.8447 8.73524 28.917 8.90929 28.8592 9.02689C28.8014 9.14449 28.6424 9.21034 28.5797 9.32794C28.5171 9.44554 28.5074 9.58666 28.44 9.69956C28.3725 9.81245 28.3629 9.95828 28.2954 10.0712C28.228 10.1841 28.0111 10.2029 27.9389 10.3158C27.8666 10.4287 27.8088 10.5416 27.7317 10.6498C27.6546 10.758 27.5775 10.8614 27.5004 10.9696C27.4233 11.0778 27.3992 11.2189 27.3173 11.3224C27.2353 11.4259 27.0667 11.4635 26.9848 11.567C26.9029 11.6705 26.874 11.8116 26.792 11.9104C26.7101 12.0092 26.5608 12.0563 26.474 12.1597C26.3873 12.2632 26.4114 12.4467 26.3246 12.5455C26.2379 12.6442 26.1705 12.7618 26.0837 12.8606C25.997 12.9594 25.8573 13.0112 25.7657 13.1099C25.6742 13.2087 25.5874 13.3028 25.4959 13.4016C25.4043 13.5004 25.3754 13.6462 25.2838 13.7403C25.1923 13.8344 25.067 13.9049 24.9755 13.999C24.8935 14.0743 24.7201 14.0978 24.6093 14.206C24.5225 14.2906 24.4021 14.3659 24.3009 14.4694C24.2141 14.5588 24.19 14.7234 24.0937 14.8269C24.0021 14.921 23.8624 14.9727 23.766 15.0715C23.6696 15.1703 23.6407 15.3208 23.5444 15.4149C23.448 15.509 23.2793 15.5278 23.183 15.6219C23.0866 15.716 23.0047 15.8241 22.9035 15.9135C22.8023 16.0029 22.7782 16.1769 22.677 16.2663C22.5758 16.3557 22.4939 16.4733 22.3879 16.558C22.2819 16.6426 22.1036 16.6426 21.9976 16.7179C21.882 16.7979 21.8049 16.9343 21.694 17.0001C21.5688 17.0707 21.4242 17.0989 21.3037 17.146C21.1688 17.2024 21.0435 17.2824 20.9183 17.3012C20.7737 17.3247 20.6099 17.3576 20.4798 17.3294C20.3497 17.3012 20.2967 17.0425 20.1858 16.9437C20.1521 16.9296 20.0895 17.0895 20.0847 17.0848L20.0702 17.0707Z" fill="#F4F3FA"/>
<path d="M20.8403 15.8006C20.7487 15.7018 20.7776 15.5278 20.7294 15.4008C20.6813 15.2785 20.5174 15.1797 20.4982 15.0433C20.4789 14.9069 20.5753 14.7657 20.5753 14.6293C20.5753 14.4929 20.5801 14.3612 20.5945 14.2295C20.6042 14.0884 20.5753 13.9472 20.5849 13.8249C20.5993 13.6885 20.5801 13.5474 20.609 13.4157C20.6379 13.284 20.7535 13.1711 20.7921 13.0394C20.8306 12.9077 20.8017 12.7571 20.8499 12.6301C20.8981 12.5031 21.033 12.4137 21.0957 12.2914C21.1583 12.1691 21.2161 12.0515 21.2836 11.9339C21.351 11.8163 21.3944 11.6846 21.4715 11.5717C21.5486 11.4588 21.5679 11.3036 21.645 11.1954C21.7221 11.0872 21.8811 11.0308 21.9678 10.9226C22.0545 10.8144 22.1316 10.7062 22.2232 10.6027C22.3147 10.4992 22.4352 10.424 22.5268 10.3252C22.6183 10.2264 22.6858 10.0994 22.7821 10.0006C22.8785 9.90181 22.9315 9.76069 23.0279 9.66661C23.1243 9.57254 23.2303 9.47846 23.3266 9.38438C23.423 9.2903 23.5724 9.23855 23.6736 9.14447C23.7748 9.05039 23.8952 8.97983 23.9916 8.89046C24.088 8.80579 24.1072 8.63174 24.2036 8.54707C24.3 8.4624 24.4542 8.43417 24.5505 8.3448C24.6469 8.25542 24.777 8.19897 24.8734 8.1143C24.9698 8.02963 25.0661 7.93555 25.1673 7.85088C25.2685 7.76621 25.3601 7.67213 25.4564 7.58275C25.5528 7.49338 25.6299 7.38518 25.7263 7.30051C25.8419 7.20173 25.8997 7.0559 25.9913 7.00416C26.1358 6.91949 26.2852 7.02298 26.3816 7.03709C26.502 7.0559 26.6611 7.0512 26.7189 7.18762C26.7622 7.2864 26.6707 7.44163 26.69 7.58275C26.7044 7.69565 26.69 7.81795 26.69 7.95437C26.69 8.09078 26.7767 8.2272 26.7719 8.35891C26.7671 8.49062 26.7863 8.63174 26.7719 8.76345C26.7574 8.89516 26.7092 9.03158 26.6851 9.15858C26.6611 9.28559 26.555 9.4079 26.5261 9.5349C26.4972 9.66191 26.5791 9.82655 26.5406 9.95826C26.502 10.09 26.4105 10.2029 26.3623 10.3252C26.3141 10.4475 26.2033 10.551 26.1503 10.6733C26.0973 10.7956 26.0057 10.8991 25.9431 11.0214C25.8805 11.1437 25.9286 11.3177 25.8564 11.4353C25.7841 11.5529 25.6154 11.6047 25.5432 11.7176C25.4709 11.8304 25.4323 11.9669 25.3552 12.0751C25.2781 12.1832 25.1818 12.282 25.0999 12.3902C25.0179 12.4984 24.989 12.6442 24.9023 12.7477C24.8156 12.8512 24.7047 12.9359 24.6132 13.0394C24.5216 13.1429 24.4783 13.2793 24.3867 13.3781C24.2952 13.4768 24.1024 13.4862 24.0109 13.5897C23.9193 13.6932 23.9241 13.8767 23.8278 13.9755C23.7507 14.046 23.6254 14.1166 23.5146 14.2295C23.4278 14.3189 23.264 14.3518 23.1628 14.4553C23.0712 14.5493 23.0472 14.7093 22.946 14.8081C22.8448 14.9069 22.7195 14.9633 22.6183 15.0527C22.5171 15.1421 22.4352 15.2597 22.334 15.3443C22.2232 15.4337 22.0979 15.4901 21.9871 15.5654C21.8666 15.6454 21.7558 15.7253 21.6401 15.7771C21.5004 15.8429 21.3703 15.8288 21.2498 15.8335C21.1101 15.8429 21.0041 15.8241 20.8981 15.73C20.874 15.7206 20.8355 15.8006 20.8306 15.8006H20.8403Z" fill="#FBE2F4"/>
<path d="M3.20511 16.3508C3.0991 16.4402 2.88709 16.4072 2.7859 16.4966C2.68471 16.586 2.61243 16.7083 2.51606 16.8024C2.41969 16.8965 2.38114 17.0423 2.28959 17.1458C2.19804 17.2493 2.1113 17.348 2.02939 17.4562C1.94747 17.5644 1.74509 17.5832 1.668 17.6961C1.5909 17.809 1.55235 17.9454 1.48007 18.0583C1.4078 18.1712 1.31143 18.2747 1.23915 18.3923C1.16687 18.5099 1.20542 18.6793 1.14278 18.8016C1.08014 18.9239 1.06087 19.0556 1.00304 19.1779C0.945222 19.3002 0.7332 19.3566 0.680196 19.4789C0.627192 19.6012 0.632012 19.7518 0.583827 19.8788C0.535642 20.0058 0.48746 20.1328 0.444093 20.2598C0.400726 20.3868 0.444089 20.542 0.41036 20.669C0.37663 20.7961 0.299537 20.9184 0.270626 21.0501C0.241714 21.1818 0.179071 21.3041 0.154978 21.4358C0.130886 21.5675 0.0537891 21.6945 0.0345149 21.8262C0.0152408 21.9579 0.145344 22.1085 0.135707 22.2449C0.12607 22.3813 0.0104261 22.5036 0.000789047 22.6353C-0.00884801 22.767 0.0730667 22.9034 0.0682482 23.0399C0.0634297 23.1763 0.0393355 23.308 0.0441541 23.4397C0.0489726 23.5714 0.0537879 23.7078 0.063425 23.8395C0.073062 23.9712 0.00560434 24.1124 0.0200599 24.2488C0.0345155 24.3852 0.207984 24.4934 0.232076 24.6251C0.256169 24.7568 0.241714 24.8932 0.270626 25.0249C0.299537 25.1566 0.174255 25.3213 0.203166 25.453C0.232078 25.5847 0.318812 25.7023 0.362179 25.834C0.405546 25.9563 0.458544 26.0833 0.506729 26.2009C0.554914 26.3185 0.646471 26.4314 0.699475 26.549C0.752478 26.6666 0.78621 26.7983 0.844032 26.9159C0.901854 27.0335 0.921125 27.1747 0.983766 27.2875C1.04641 27.4004 1.24397 27.4428 1.31143 27.551C1.37889 27.6592 1.47526 27.7532 1.55236 27.8614C1.62945 27.9696 1.59572 28.1578 1.67764 28.2566C1.75955 28.3554 1.80292 28.4965 1.88965 28.5953C1.97639 28.694 2.21249 28.6658 2.29922 28.7646C2.38596 28.8634 2.49678 28.9339 2.59315 29.028C2.68952 29.1221 2.74735 29.2444 2.84854 29.3291C2.94972 29.4137 3.06538 29.4749 3.17138 29.5596C3.27739 29.6442 3.31593 29.7995 3.42194 29.8794C3.52795 29.9594 3.65323 30.0159 3.75924 30.0911C3.86524 30.1664 4.03872 30.1476 4.14954 30.2181C4.26037 30.2887 4.2941 30.4816 4.40974 30.5474C4.52539 30.6133 4.69404 30.585 4.80968 30.6509C4.92533 30.7168 4.96869 30.919 5.08916 30.9755C5.20962 31.0319 5.32044 31.1072 5.44572 31.1636C5.571 31.2201 5.73484 31.1777 5.8553 31.2295C5.97576 31.2812 6.12032 31.2906 6.24079 31.3377C6.36125 31.3847 6.46725 31.4835 6.59735 31.5258C6.72745 31.5682 6.81419 31.714 6.93947 31.7563C7.06475 31.7987 7.26231 31.6152 7.39241 31.6528C7.52251 31.6905 7.64297 31.7281 7.77308 31.761C7.90318 31.794 8.00919 31.8975 8.13929 31.9257C8.26939 31.9539 8.37058 32.0997 8.50068 32.128C8.63078 32.1562 8.78015 32.1091 8.91025 32.1327C9.04035 32.1562 9.16563 32.2079 9.30055 32.2314C9.43547 32.255 9.56075 32.2926 9.69567 32.3161C9.83059 32.3396 9.96069 32.3679 10.0908 32.3867C10.2209 32.4055 10.3606 32.3726 10.4955 32.3867C10.6305 32.4008 10.7606 32.4478 10.8907 32.4619C11.0208 32.476 11.1653 32.3537 11.3002 32.3631C11.4352 32.3726 11.5653 32.349 11.7002 32.3537C11.8351 32.3584 11.9652 32.3537 12.1001 32.3584C12.235 32.3631 12.3651 32.4949 12.5001 32.4996C12.635 32.5043 12.7651 32.4149 12.9 32.4149C13.0349 32.4149 13.1698 32.5043 13.3048 32.4996C13.4397 32.4949 13.5698 32.4337 13.7047 32.429C13.8396 32.4243 13.9793 32.4855 14.1094 32.476C14.2395 32.4666 14.3648 32.3302 14.4949 32.3161C14.625 32.302 14.7551 32.255 14.89 32.2408C15.025 32.2267 15.1599 32.2644 15.2948 32.2408C15.4297 32.2173 15.5454 32.1327 15.6803 32.1138C15.8152 32.095 15.9646 32.1891 16.0947 32.1656C16.2248 32.1421 16.3597 32.1232 16.4898 32.095C16.6199 32.0668 16.7259 31.9257 16.8512 31.8975C16.9765 31.8692 17.1258 31.9022 17.2559 31.8692C17.386 31.8363 17.5113 31.7704 17.6414 31.7328C17.7715 31.6952 17.892 31.6246 18.0221 31.5823C18.1522 31.54 18.3353 31.6481 18.4654 31.6011C18.5955 31.5541 18.6678 31.3753 18.7979 31.3236C18.928 31.2718 19.0918 31.3142 19.2171 31.2624C19.3424 31.2107 19.5062 31.2295 19.6315 31.173C19.7568 31.1166 19.858 31.0131 19.9784 30.9472C20.0989 30.8814 20.1663 30.7215 20.282 30.6509C20.3976 30.5803 20.6 30.6415 20.7156 30.5662C20.8313 30.491 20.8939 30.3404 21.0048 30.2652C21.1156 30.1899 21.1734 30.0394 21.2842 29.9547C21.3951 29.87 21.53 29.8277 21.636 29.743C21.742 29.6584 21.8335 29.5596 21.9347 29.4655C22.0359 29.3714 22.1564 29.3056 22.2528 29.2115C22.3491 29.1174 22.378 28.9622 22.4696 28.8634C22.5611 28.7646 22.8262 28.8069 22.9129 28.7034C22.9996 28.6 23.0189 28.44 23.1008 28.3318C23.1827 28.2236 23.2309 28.0919 23.308 27.9837C23.3851 27.8755 23.4237 27.7391 23.4959 27.6262C23.5682 27.5133 23.6839 27.424 23.7513 27.3064C23.8188 27.1888 23.8814 27.0712 23.9392 26.9489C23.9971 26.8266 24.1561 26.7466 24.2043 26.6243C24.2525 26.502 24.2284 26.342 24.2717 26.2197C24.3151 26.0974 24.3151 25.9516 24.3536 25.8246C24.3922 25.6976 24.4693 25.58 24.503 25.4483C24.5367 25.3166 24.4934 25.1755 24.5223 25.0437C24.5512 24.912 24.6283 24.7897 24.6476 24.658C24.6668 24.5263 24.6476 24.3899 24.662 24.2582C24.6765 24.1265 24.609 23.9901 24.6138 23.8583C24.6187 23.7266 24.7343 23.5996 24.7343 23.4632C24.7343 23.3268 24.821 23.1951 24.8162 23.0587C24.8114 22.9223 24.7825 22.7905 24.7729 22.6588C24.7632 22.5271 24.7873 22.386 24.7729 22.2543C24.7584 22.1226 24.6331 22.0003 24.609 21.8686C24.5849 21.7368 24.5898 21.6004 24.5608 21.4687C24.5319 21.337 24.3488 21.2429 24.3151 21.1159C24.2814 20.9889 24.4115 20.8149 24.3681 20.6879C24.3247 20.5609 24.3536 20.4103 24.3055 20.2833C24.2573 20.1563 24.0645 20.0858 24.0115 19.9634C23.9585 19.8411 23.9923 19.6812 23.9344 19.5589C23.8766 19.4366 23.7176 19.366 23.655 19.2484C23.5971 19.1308 23.6116 18.9709 23.5489 18.858C23.4863 18.7451 23.4285 18.6181 23.3562 18.5099C23.2839 18.4017 23.1538 18.3218 23.0815 18.2136C23.0093 18.1054 22.9418 17.9878 22.8599 17.8843C22.778 17.7808 22.6672 17.6961 22.5804 17.5973C22.4937 17.4986 22.354 17.4421 22.2624 17.348C22.1708 17.254 22.1853 17.0611 22.0889 16.967C21.9926 16.8729 21.8866 16.793 21.7854 16.7036C21.6842 16.6142 21.6456 16.459 21.5444 16.3743C21.4432 16.2896 21.3469 16.1909 21.2409 16.1062C21.1349 16.0215 20.9132 16.0874 20.8024 16.0121C20.6916 15.9368 20.5759 15.871 20.4651 15.7957C20.3543 15.7205 20.335 15.5135 20.2193 15.4429C20.1037 15.3724 19.9977 15.2877 19.882 15.2171C19.7664 15.1466 19.5496 15.2595 19.4291 15.1983C19.3086 15.1372 19.2556 14.9584 19.1352 14.902C19.0147 14.8455 18.8412 14.8926 18.7208 14.8361C18.6003 14.7797 18.5136 14.6527 18.3883 14.6009C18.263 14.5492 18.157 14.4551 18.0317 14.408C17.9064 14.361 17.7715 14.3328 17.6462 14.2904C17.521 14.2481 17.3619 14.2904 17.2367 14.2481C17.1114 14.2058 16.9861 14.1587 16.856 14.1211C16.7259 14.0835 16.6006 14.0364 16.4705 14.0035C16.3404 13.9706 16.2151 13.9188 16.085 13.8906C15.9549 13.8624 15.8441 13.7401 15.7092 13.7166C15.5743 13.693 15.4297 13.7448 15.2948 13.7166C15.1599 13.6883 15.0202 13.7307 14.8852 13.7119C14.7503 13.693 14.6202 13.6695 14.4853 13.6554C14.3504 13.6413 14.2203 13.6319 14.0854 13.6178C13.9504 13.6037 13.83 13.472 13.6951 13.4625C13.5601 13.4531 13.43 13.3732 13.2951 13.3685C13.1602 13.3638 13.0205 13.4155 12.8855 13.4108C12.7506 13.4061 12.6157 13.5707 12.4808 13.5707C12.3459 13.5707 12.2158 13.566 12.0808 13.5707C11.9459 13.5754 11.811 13.4814 11.6761 13.4861C11.5412 13.4861 11.4111 13.4861 11.2761 13.4955C11.1412 13.5049 11.0111 13.5331 10.881 13.5425C10.7509 13.5519 10.6016 13.4202 10.4715 13.4343C10.3414 13.4484 10.2016 13.4578 10.0715 13.472C9.94142 13.4861 9.8065 13.519 9.6764 13.5331C9.5463 13.5472 9.43547 13.7166 9.30055 13.7354C9.16563 13.7542 9.04035 13.7918 8.91025 13.8153C8.78015 13.8389 8.65487 13.8859 8.52477 13.9094C8.39466 13.9329 8.24048 13.8577 8.11038 13.8906C7.98028 13.9235 7.87427 14.0317 7.74416 14.0647C7.61406 14.0976 7.45988 14.0411 7.33459 14.0788C7.20931 14.1164 7.11776 14.2716 6.99248 14.314C6.86719 14.3563 6.71782 14.3281 6.59254 14.3751C6.46725 14.4222 6.37088 14.5351 6.2456 14.5821C6.12032 14.6291 5.98058 14.6291 5.86012 14.6809C5.73965 14.7326 5.63847 14.8314 5.51801 14.8831C5.39754 14.9349 5.19516 14.8267 5.0747 14.8831C4.95424 14.9396 4.81932 14.9819 4.70367 15.0431C4.58803 15.1042 4.49647 15.2218 4.38565 15.2877C4.27482 15.3535 4.16882 15.4382 4.05799 15.5135C3.94717 15.5887 3.92307 15.7769 3.81706 15.8569C3.71106 15.9368 3.59541 15.9933 3.49422 16.078C3.39303 16.1626 3.25811 16.1862 3.16174 16.2755C3.15211 16.332 3.20511 16.3602 3.19547 16.3696L3.20511 16.3508Z" fill="#F4F3FA"/>
<path d="M9.03243 22.3311C9.03243 22.4638 8.91331 22.5782 8.86292 22.6925C8.81252 22.8069 8.80336 22.9716 8.71174 23.0631C8.62011 23.1545 8.45976 23.1545 8.33606 23.2049C8.21236 23.2552 8.10241 23.2323 7.96497 23.2323C7.82753 23.2323 7.6855 23.3147 7.57096 23.2689C7.45643 23.2232 7.3648 23.0997 7.26859 23.0127C7.17238 22.9258 7.06242 22.8389 7.01203 22.72C6.96163 22.601 6.92041 22.4638 6.92041 22.3311C6.92041 22.1985 7.02578 22.0887 7.07618 21.9698C7.12657 21.8508 7.19988 21.7639 7.29609 21.6724C7.3923 21.5809 7.48849 21.5352 7.61219 21.4894C7.73589 21.4437 7.83211 21.4025 7.96955 21.4025C8.10699 21.4025 8.23985 21.3659 8.35439 21.4117C8.46892 21.4574 8.62927 21.494 8.72548 21.5809C8.82169 21.6678 8.88583 21.8097 8.94081 21.9286C8.99578 22.0475 9.03701 22.1893 9.03701 22.322L9.03243 22.3311Z" fill="#2F2E57"/>
<path d="M16.4584 22.944C16.4584 23.0766 16.4813 23.223 16.4309 23.3374C16.3805 23.4517 16.3026 23.5844 16.2064 23.6759C16.1102 23.7674 15.9453 23.7491 15.8262 23.7994C15.7071 23.8497 15.5971 23.9732 15.4643 23.9732C15.3314 23.9732 15.2031 23.8863 15.0886 23.8406C14.974 23.7948 14.8412 23.7399 14.7496 23.653C14.6579 23.5661 14.6167 23.4334 14.5617 23.3145C14.5067 23.1956 14.4014 23.0812 14.4014 22.9485C14.4014 22.8159 14.5434 22.7107 14.5938 22.5963C14.6442 22.482 14.6259 22.3081 14.7221 22.2166C14.8183 22.1251 14.9557 22.0794 15.0794 22.0337C15.2031 21.9879 15.3314 22.0062 15.4643 22.0062C15.5971 22.0062 15.7346 21.9788 15.8537 22.0245C15.9728 22.0703 16.0598 22.1892 16.1515 22.2761C16.2431 22.363 16.3439 22.4499 16.3989 22.5689C16.4538 22.6878 16.4584 22.8159 16.4584 22.9485V22.944Z" fill="#2F2E57"/>
<path d="M10.8545 24.5679C10.9232 24.545 10.9919 24.5313 11.0606 24.5221L10.9644 24.5358C11.0973 24.5176 11.2301 24.5221 11.363 24.5358L11.2668 24.5221C11.418 24.545 11.5692 24.5816 11.7158 24.6273C11.8944 24.6822 12.1143 24.5633 12.1556 24.3803C12.2014 24.1882 12.096 24.0006 11.9082 23.9412C11.5096 23.8177 11.0744 23.7536 10.6666 23.8771C10.4879 23.932 10.3551 24.1287 10.4192 24.3163C10.4834 24.5038 10.6666 24.6228 10.859 24.5633L10.8545 24.5679Z" fill="#2F2E57"/>
<path d="M9.27852 24.7829C9.2098 25.3273 9.56257 25.8945 10.1582 25.8442C10.4605 25.8167 10.7171 25.6338 10.9232 25.4279C11.0194 25.3319 11.189 25.1855 11.2394 25.062C11.3127 24.9933 11.276 24.9659 11.1202 24.9842C11.1386 25.0117 11.1523 25.0391 11.1615 25.0711C11.189 25.1306 11.2164 25.1855 11.2485 25.2449C11.5097 25.6841 11.9586 25.9997 12.4763 26.0272C13.0399 26.0592 13.5072 25.7253 13.8233 25.2953C14.0294 25.0162 13.5621 24.7509 13.3605 25.0254C13.1361 25.3273 12.7787 25.556 12.3893 25.4828C12.2106 25.4508 12.0503 25.3639 11.922 25.2404C11.7525 25.0803 11.6883 24.8881 11.5646 24.7006C11.4318 24.4993 11.1981 24.4215 10.9874 24.5588C10.7766 24.696 10.6438 24.9705 10.4514 25.1397C10.3277 25.2495 10.1123 25.3959 9.94283 25.2861C9.78706 25.1855 9.78705 24.9522 9.80538 24.7875C9.82371 24.6411 9.66794 24.5222 9.53966 24.5222C9.37932 24.5222 9.29226 24.6457 9.27394 24.7875L9.27852 24.7829Z" fill="#2F2E57"/>
<g filter="url(#filter0_f_3194_702)">
<ellipse cx="16.3381" cy="25.3946" rx="1.81421" ry="0.899011" fill="#F6B7E3" fill-opacity="0.4"/>
</g>
<g filter="url(#filter1_f_3194_702)">
<ellipse cx="6.81421" cy="24.4957" rx="1.81421" ry="0.899011" fill="#F6B7E3" fill-opacity="0.4"/>
</g>
<defs>
<filter id="filter0_f_3194_702" x="10.5239" y="20.4956" width="11.6284" height="9.79785" filterUnits="userSpaceOnUse" color-interpolation-filters="sRGB">
<feFlood flood-opacity="0" result="BackgroundImageFix"/>
<feBlend mode="normal" in="SourceGraphic" in2="BackgroundImageFix" result="shape"/>
<feGaussianBlur stdDeviation="2" result="effect1_foregroundBlur_3194_702"/>
</filter>
<filter id="filter1_f_3194_702" x="1" y="19.5967" width="11.6284" height="9.79785" filterUnits="userSpaceOnUse" color-interpolation-filters="sRGB">
<feFlood flood-opacity="0" result="BackgroundImageFix"/>
<feBlend mode="normal" in="SourceGraphic" in2="BackgroundImageFix" result="shape"/>
<feGaussianBlur stdDeviation="2" result="effect1_foregroundBlur_3194_702"/>
</filter>
</defs>
</svg>
