<svg width="16" height="16" viewBox="0 0 16 16" fill="none" xmlns="http://www.w3.org/2000/svg">
<path d="M7.52193 2.30223C7.67559 1.99094 7.75242 1.83529 7.85672 1.78556C7.94746 1.7423 8.05289 1.7423 8.14363 1.78556C8.24793 1.83529 8.32476 1.99094 8.47842 2.30223L9.9362 5.25554C9.98157 5.34744 10.0042 5.39339 10.0374 5.42907C10.0667 5.46066 10.1019 5.48625 10.141 5.50443C10.1852 5.52497 10.2359 5.53238 10.3373 5.5472L13.5982 6.02382C13.9415 6.07401 14.1132 6.09911 14.1927 6.18298C14.2618 6.25595 14.2943 6.35622 14.2812 6.45587C14.266 6.57041 14.1417 6.69147 13.8931 6.93361L11.5345 9.23097C11.4609 9.30258 11.4242 9.33839 11.4004 9.38099C11.3794 9.41872 11.366 9.46016 11.3608 9.50302C11.3549 9.55143 11.3636 9.60202 11.3809 9.70318L11.9375 12.9481C11.9962 13.2903 12.0255 13.4615 11.9704 13.563C11.9224 13.6514 11.8371 13.7133 11.7382 13.7317C11.6246 13.7527 11.4709 13.6719 11.1636 13.5103L8.24841 11.9772C8.15759 11.9295 8.11217 11.9056 8.06432 11.8962C8.02196 11.8879 7.97839 11.8879 7.93603 11.8962C7.88818 11.9056 7.84276 11.9295 7.75193 11.9772L4.83678 13.5103C4.52944 13.6719 4.37577 13.7527 4.26214 13.7317C4.16328 13.7133 4.07798 13.6514 4.02999 13.563C3.97483 13.4615 4.00418 13.2903 4.06288 12.9481L4.61942 9.70318C4.63677 9.60202 4.64545 9.55143 4.63958 9.50302C4.63438 9.46016 4.6209 9.41872 4.5999 9.38099C4.57618 9.33839 4.53941 9.30258 4.46589 9.23097L2.1072 6.93361C1.8586 6.69147 1.73431 6.57041 1.71918 6.45587C1.70602 6.35622 1.73853 6.25595 1.80766 6.18298C1.88712 6.09911 2.05881 6.07401 2.40219 6.02382L5.66304 5.5472C5.76445 5.53238 5.81515 5.52497 5.85931 5.50443C5.89841 5.48625 5.9336 5.46066 5.96295 5.42907C5.9961 5.39339 6.01878 5.34744 6.06415 5.25554L7.52193 2.30223Z" fill="#FFD469"/>
</svg>
